<svg xmlns="http://www.w3.org/2000/svg" xmlns:xlink="http://www.w3.org/1999/xlink" width="755.478" height="769.87" viewBox="0 0 755.478 769.87">
  <defs>
    <clipPath id="clip-path">
      <circle id="椭圆_4" data-name="椭圆 4" cx="377.5" cy="377.5" r="377.5" transform="translate(10893 189)" fill="#506fc6"/>
    </clipPath>
  </defs>
  <g id="澳门赛马" transform="translate(-10826.522 -61.13)">
    <circle id="椭圆_5" data-name="椭圆 5" cx="377.5" cy="377.5" r="377.5" transform="translate(10827 76)" fill="#506fc6"/>
    <g id="蒙版组_2" data-name="蒙版组 2" transform="translate(-66 -113)" clip-path="url(#clip-path)">
      <path id="马" d="M237.772,139.534c-2.912,0-5.276-4.45-5.276-9.933s2.363-9.933,5.276-9.933,5.276,4.45,5.276,9.933-2.364,9.933-5.276,9.933M351.465,30.063C452.079,47.755,517.334,132.635,501.56,227.086c-5.75,34.484-31.982,54.514-66.358,62.843-28.595,6.929-58.239,10.013-83.357,14.135,0-22.693-.733-43.27.2-63.782.95-20.766.322-42.311,6.2-61.974,7.507-25.111,9.665-47.874-8.758-75.653,2.96,16.489,5.856,27.282,6.69,38.223,2.459,32.388-10.588,50.034-43.514,56.377-28.1,5.414-44.264,20.935-52.837,45.842-7.966,23.155-35.258,36.157-54.915,27.128-24.021-11.026-30.262-36.57-22.084-58.816,9.665-26.294,12.693-54.753,18.55-82.283,2.179-10.251,4.2-20.532,6.341-31.017l-23.7-4.45,48.22-42.49L203.269,15.417l3.946-5.9,37.173,4.063L237.9,0c13.981,2.255,28.779.447,35.822,6.566,22.707,19.718,50.753,18.754,77.733,23.5Zm227.78,164.58-44.126,3.129c0,18.948,1.25,42.664-.227,66.231-4.7,74.659-48.157,121.3-126.776,135.009-29.112,5.081-58.935,6.581-88.448,9.6-37.548,3.839-67.435,18.526-80.677,53.809-14.329,38.194-2.738,71.1,26.479,99.453,4.258,4.132,8.425,8.334,12.556,12.576.353.358.106,1.232.232,3.785-29.776-7.564-47.123-27.664-61.552-50.094-59.5-92.489,8.177-209.429,123.263-214.054,26.247-1.058,53.185-.785,78.477-6.412,90.917-20.219,105.868-63.191,89.471-143.983-6.89-33.992-31.037-64.885-47.381-97.257,11.063,11.7,23.857,24.506,35.706,38.055,5.5,6.288,9.47,13.852,13.611,21.1,11.258,19.738,25.851,26.885,51.016,6.784-9.285,17.046-22.306,30.108-19.874,39.708,2.168,8.572,21.409,13.311,38.249,22.559ZM475.646,391.2c-26.621,28.727-68.368,39.8-111.714,47.625-13.733,2.478-27.766,3.576-41.425,6.357-46.9,9.586-64.153,29.9-70.669,82.173-23.63-35.825-1.319-86.618,45.192-98.32,24.311-6.114,50.4-5.761,75.005-11.13,35.822-7.823,71.012-18.178,103.616-26.706Z" transform="translate(11096.688 319.35) rotate(14)" fill="#fff"/>
    </g>
    <text id="澳门" transform="translate(10826.522 230.772) rotate(-20)" fill="#fff" font-size="235" font-family="MicrosoftYaHei-Bold, Microsoft YaHei" font-weight="700" opacity="0.62"><tspan x="0" y="249">澳门</tspan></text>
  </g>
</svg>
