<svg xmlns="http://www.w3.org/2000/svg" xmlns:xlink="http://www.w3.org/1999/xlink" width="833.478" height="826" viewBox="0 0 833.478 826">
  <defs>
    <clipPath id="clip-path">
      <circle id="椭圆_2" data-name="椭圆 2" cx="384" cy="384" r="384" transform="translate(9690 129)" fill="#fff" stroke="#707070" stroke-width="1"/>
    </clipPath>
  </defs>
  <g id="香港赛马" transform="translate(-9656.522 -146)">
    <g id="椭圆_3" data-name="椭圆 3" transform="translate(9675 146)" fill="#6b50c6" stroke="#707070" stroke-width="1">
      <circle cx="384" cy="384" r="384" stroke="none"/>
      <circle cx="384" cy="384" r="383.5" fill="none"/>
    </g>
    <g id="蒙版组_1" data-name="蒙版组 1" transform="translate(32 75)" clip-path="url(#clip-path)">
      <g id="香港赛马-2" data-name="香港赛马" transform="translate(9575.165 238.525)">
        <path id="路径_1291" data-name="路径 1291" d="M4.8,462.652c7.441-14.618,52.086-2.724,60.27-.4a2.053,2.053,0,0,0,2.165-.6l16.708-18.738a2.193,2.193,0,0,1,2.752-.34,2.106,2.106,0,0,1,.833,2.6,19.642,19.642,0,0,0-2.5,11.5,2.1,2.1,0,0,0,2.5,1.528h.541c17.858-9.768,37.475-41.6,46.742-57.942a2.108,2.108,0,0,1,2.546-1.174,2.057,2.057,0,0,1,1.445,2.37c-1.488,15.881,1.421,13.289,1.421,13.289,11.77-3.854,23.54-37.277,24.555-39.868v-.4a28.75,28.75,0,0,1,.676-4.917c8.794-54.952,45.862-49.835,54.791-47.775a2.061,2.061,0,0,1,1.623,2.392c-8.185,45.583,8.591,66.447,18.467,74.487a6.564,6.564,0,0,1,.879,9.369l-.473.465c-59.324,55.085-55.468,58.872-55.468,58.872l-3.923,46.513a9.965,9.965,0,0,1-1.082,3.655C164.037,549.1,154.5,558.4,149.359,560.595a7.1,7.1,0,0,0-4.4,7.043l3.247,22.658a2.149,2.149,0,0,0,2.1,1.927,2.356,2.356,0,0,0,2.5-2.06c0-2.724.744-2.924,2.706-4.851,37.136-37.144,21.849-34.42,33.822-77.61,12.311-44.32,32.807-44.32,77.925-64.453,42.413-18.937,52.221-34.353,63.45-59.8a92.835,92.835,0,0,0,2.1-9.568c1.082-5.582,2.232-11.1,2.909-16.678s1.218-11.23,1.759-16.811a156.711,156.711,0,0,0-2.435-33.755,113.781,113.781,0,0,0-10.62-32.36,113.786,113.786,0,0,1,12.649,31.031,158.523,158.523,0,0,1,3.653,34.353v5.515c.541-1.861,1.15-3.655,1.894-5.515a64.325,64.325,0,0,1,17.52-24.652,61.321,61.321,0,0,1,27.531-13.289,83.457,83.457,0,0,1,15.152-1.794h14.611q14.882,0,29.831-1.2a261.458,261.458,0,0,0,29.628-3.721,134.423,134.423,0,0,0,14.949-3.588,44.759,44.759,0,0,0,13.529-6.047,47.69,47.69,0,0,1-13.529,6.645A119.282,119.282,0,0,1,477.363,296a261.314,261.314,0,0,1-29.628,4.651q-15.017,1.4-30.034,1.794H402.752a81.582,81.582,0,0,0-14.476,1.993,57.464,57.464,0,0,0-25.569,12.891,66.043,66.043,0,0,0-16.437,23.256,96.844,96.844,0,0,0-6.764,20.532,2.115,2.115,0,0,0,1.091,2.139,2.2,2.2,0,0,0,2.426-.212,65.383,65.383,0,0,1,38.557-13.755c115.468-10.764,144.081-53.357,150.3-65.384a2.029,2.029,0,0,0-.123-2.079,2.11,2.11,0,0,0-1.906-.911h-8.929a110.113,110.113,0,0,1-12.311-1.2q-6.02-1.1-11.905-2.791l-5.75-2.126a42.974,42.974,0,0,1-5.885-2.724,60.2,60.2,0,0,1-20.293-14.153c-1.421-1.462-2.5-3.123-3.788-4.718a40.392,40.392,0,0,1-2.976-5.249,30.851,30.851,0,0,1-2.976-11.695,28.747,28.747,0,0,0,3.72,11.163,45.665,45.665,0,0,0,3.112,4.851c1.285,1.462,2.5,2.99,3.923,4.319a58.123,58.123,0,0,0,20.293,12.559,41.068,41.068,0,0,0,5.682,1.993l5.614,1.728,5.817,1.329a52.935,52.935,0,0,0,5.817,1.4l11.838,2.326c3.991.664,7.982,1.329,12.041,2.259,45.118,11.96,90.169-32.227,90.169-24.187s4.059,16.08-16.234,32.493c-15.288,12.027-21.443,8.372-23.608,5.714a2.193,2.193,0,0,0-2.909,0c-35.175,25.715-33.416,40.865-31.657,45.516a2.1,2.1,0,0,0,2.3,1.262c56.212-8.439,72.446-40.267,88.681-60.2a42.286,42.286,0,0,0,8.726-38.871,2.225,2.225,0,0,0-1.961-1.528c-76.3-4.053-64.194-12.027-64.194-12.027a26.366,26.366,0,0,1-9.2-5.183,48.814,48.814,0,0,1-9.673-11.761,128.349,128.349,0,0,1-13.529-26.579c2.165,4.452,4.6,8.7,7.17,12.891a117.011,117.011,0,0,0,8.253,12.16,114.626,114.626,0,0,0,9.808,10.632,52.746,52.746,0,0,0,6.223,5.382,2.191,2.191,0,0,0,3.044-.4v-.532c9.808-25.981-27.057-77.012-34.972-88.441-5.817-8.572-7.508-37.343-7.982-53.158a2.062,2.062,0,0,1,1.538-2.188,2.109,2.109,0,0,1,2.453,1.125,31.461,31.461,0,0,0,36.8,18.206c3.856,0,29.7,21.6,32.6,23.987l.609.4c1.826.6,9.4,2.326,20.293-8.239a16.34,16.34,0,0,0,.541-23.389l-.271-.6-.473-.4c-2.841-1.661-28.681-17.343-32.6-39.868-3.518-20.864-22.322-35.748-27.4-39.469a2.106,2.106,0,0,1-.812-2.326l2.706-7.841A2.118,2.118,0,0,0,575.988.115H550.08c-25.1,2.259-66.832,19.469-85.3,27.31a2.054,2.054,0,0,0-1.324,2.369,2.092,2.092,0,0,0,2.2,1.618H479.19a2.157,2.157,0,0,1,2.142,1.65,2.116,2.116,0,0,1-1.2,2.4c-8.591,4.053-20.9,9.568-28.884,12.093-12.311,4.053-49.177,28.24-40.992,24.187A127.856,127.856,0,0,1,437.724,66.1,2.162,2.162,0,0,1,440,67.676a2.115,2.115,0,0,1-1.2,2.474,41.873,41.873,0,0,0-11.77,5.449c-4.059,3.987-28.681,3.987-24.555,8.04s53.3-8.04,40.992-4.053-20.293,22.991-20.293,24.12c-10.688,31.629-19.684,40.8-24.622,43.39a2.108,2.108,0,0,0,0,3.721,21.036,21.036,0,0,0,16.37,1.2c12.311-4.053,36.933-48.373,32.875-32.227a235.916,235.916,0,0,1-23.066,45.981,2.1,2.1,0,0,0,.28,2.485,2.192,2.192,0,0,0,2.493.5,99.123,99.123,0,0,0,21.443-19.934,2.191,2.191,0,0,1,2.749-.519,2.109,2.109,0,0,1,.972,2.579c-17.858,51.363-54.656,90.767-123.856,98.341-66.764,7.243-96.663,47.51-101.465,55.151a2.184,2.184,0,0,1-2.3.864C125.008,280.056,86.925,397.2,83,409.362a2.009,2.009,0,0,1-1.353,1.4C-11.768,442.785-3.651,478.732,4.8,462.652ZM633.147,97.194c0-.465,1.353-.4,2.638,0s2.165,1.262,2.029,1.661-1.353,0-2.638,0-2.5-1-2.3-1.4Zm-55.6-53.158c.474-1,3.382-.864,6.764.4s5.479,3.123,5.073,4.12-3.382.864-6.764-.4-5.75-2.591-5.344-3.655ZM509.02,51.545a111,111,0,0,0,1.15,38.141A155.779,155.779,0,0,0,522.143,125.9c3.044,5.581,5.75,11.362,9.335,16.612s6.764,10.632,10.755,15.881a78.293,78.293,0,0,0,5.75,7.376l5.953,7.508c4.194,4.917,8.591,9.568,12.717,14.618A194.2,194.2,0,0,1,552.042,174.6c-2.3-2.326-4.4-4.784-6.764-7.243a83.9,83.9,0,0,1-6.088-6.645l-5.817-7.907c-1.894-2.658-3.382-5.582-5.073-8.372a167.938,167.938,0,0,1-8.861-17.343,156.185,156.185,0,0,1-10.688-37.21,111.709,111.709,0,0,1,.271-38.34ZM418.851,248.892a99.873,99.873,0,0,0,39.166-35.283,169.9,169.9,0,0,0,21.308-47.842,281.094,281.094,0,0,0,8.794-52.427,360.259,360.259,0,0,0,0-53.158,344.339,344.339,0,0,1,1.285,53.158A283.148,283.148,0,0,1,481.76,166.5a146.9,146.9,0,0,1-21.172,49.636,95.663,95.663,0,0,1-18.534,19.934,84.421,84.421,0,0,1-23.811,13.289Z" transform="translate(160.466 37)" fill="#fff"/>
      </g>
    </g>
    <text id="香港" transform="translate(9656.522 341.772) rotate(-20)" fill="#fff" font-size="235" font-family="MicrosoftYaHei-Bold, Microsoft YaHei" font-weight="700" opacity="0.67"><tspan x="0" y="249">香港</tspan></text>
  </g>
</svg>
