<svg id="PK10" xmlns="http://www.w3.org/2000/svg" width="760.742" height="760.743" viewBox="0 0 760.742 760.743">
  <g id="组_306" data-name="组 306">
    <path id="路径_1252" data-name="路径 1252" d="M340.432,0h42.906c95.131.456,189.349,38.265,258.2,103.917,72.194,67.44,115.443,163.9,119.208,262.532v24.382C758.08,514.452,690.564,634,586.19,700.226,398.515,636.133,210.383,573.3,22.518,509.583,9.129,472.649,2.092,433.661,0,394.521V366.412c2.016-46.063,12.514-91.365,29.289-134.2A15.715,15.715,0,0,0,32.712,243.4c4.641,3.233,9.319,6.39,13.96,9.623q-5.363,13.922-10.612,27.919c18.448,15.519,40.205,27.006,57.626,43.743.342,10.118-3.119,19.855-5.972,29.441-9.319,29.022-17.421,58.425-26.7,87.447-3.347,10.955-7.151,21.947-7.836,33.473,17.079,12.78,39.635,17,60.441,19.931,12.514-23.545,15.823-50.665,25.066-75.542,27.425,7.075,53.937,17.269,81.514,23.621a53.024,53.024,0,0,0,53.024-19.019c-8.9,24.534-13.541,50.323-22.1,74.971-3.081,11.753-9.243,23.849-6.961,36.173,17.573,8.558,36.82,14.568,56.257,16.584,1.255-.533,3.842-1.521,5.1-2.016,8.825-18.942,12.21-39.825,19.437-59.338,9.4,24.838,12.819,52.263,25.789,75.542,18.866,10.232,40.433,14.606,61.658,16.584,17,9.205,35.641,17.117,55.344,16.432a27.95,27.95,0,0,0,23.925-16.318c7.379-16.432,10.612-34.348,17.307-51.046-2.206,23.773-14.226,45.3-16.736,68.885-1.1,10.879,12.058,11.373,19.437,14.606,27.577,7.417,54.583,17,82.274,24.077,13.123,3.956,30.278.875,35.983-13.085C640.812,600.3,646.9,572.763,653.326,545.6c2.853-12.552,12.438-22.746,13.807-35.679.076-21.643-3.5-43.134-4.3-64.777-1.788-8.026.989-19.4-6.809-24.61-16.318-8.216-34.538-11.753-51.883-17.231-6.961-1.027-15.9-6.048-21.757.114-11.259,10.232-19.817,23.012-29.973,34.31-4.222-4.26-8.406-8.558-12.628-12.819,39.9-56.675,81.438-112.172,121.757-168.543-7.836-6.656-15.709-13.2-23.659-19.7q8.387-11.582,16.736-23.2-39.54-28.642-79.155-57.17c-26.436-18.638-52-38.532-79-56.371-1.293,1.674-3.842,4.983-5.135,6.618l5.173-7.3q-39.425-28.471-78.851-56.9c-17-12.02-33.549-24.762-50.627-36.63C360.9.571,352.718.533,345.187.19Z" fill="#2b87f8"/>
    <path id="路径_1253" data-name="路径 1253" d="M44.778,96.76a276.52,276.52,0,0,1,48.649,34.576c-18.6-3.119-36.554-9.129-54.507-14.911C40.86,109.883,42.838,103.3,44.778,96.76Z" transform="translate(109.121 271.287)" fill="#2b87f8"/>
    <path id="路径_1254" data-name="路径 1254" d="M153.79,150.775a159.73,159.73,0,0,1,19.019-27.615c1.56,10.993,2.777,22.062,3.88,33.13C169.043,154.465,161.435,152.639,153.79,150.775Z" transform="translate(431.183 345.305)" fill="#2b87f8"/>
    <path id="路径_1255" data-name="路径 1255" d="M142.468,125.88c1.712,8.634.875,17.421-.266,26.094-1.522-.989-4.6-3-6.162-3.994Q139.064,136.854,142.468,125.88Z" transform="translate(381.417 352.931)" fill="#2b87f8"/>
    <path id="路径_1256" data-name="路径 1256" d="M107.24,144.34c4.3,2.739,8.558,5.439,12.895,8.178-2.282,4.564-4.564,9.129-6.847,13.731Z" transform="translate(300.67 404.688)" fill="#1a61da"/>
    <path id="路径_1257" data-name="路径 1257" d="M156.786,146.16c5.249.494,10.5.989,15.747,1.521a290.77,290.77,0,0,1-10.726,39.559c-4.945-.456-9.852-.875-14.8-1.331C149.749,172.558,153.058,159.321,156.786,146.16Z" transform="translate(412.174 409.791)" fill="#2b87f8"/>
  </g>
  <g id="组_309" data-name="组 309" transform="translate(29.241 3.309)">
    <path id="路径_1258" data-name="路径 1258" d="M61.21,26.7A394.613,394.613,0,0,1,154.972.87c-13.465,18.866-26.892,37.733-40.89,56.219l2.32,2.244c-4.108-.266-8.216-.571-12.286-.913C90.575,46.857,75.7,37.005,61.21,26.7Z" transform="translate(142.375 -0.87)" fill="#fff"/>
    <path id="路径_1259" data-name="路径 1259" d="M151.519,11.13q39.425,28.414,78.851,56.9l-5.173,7.3C207.814,98.349,192.523,123,173.429,144.678c25.143,21.377,53.138,38.988,79.383,58.958,18.638-26.322,37.695-52.339,56.523-78.547q39.6,28.585,79.155,57.17-8.33,11.639-16.736,23.2-19.912,27.5-39.749,55c-2.092-1.483-6.352-4.488-8.482-5.972-23.659-16.394-46.1-34.576-70.407-49.981-19.551,25.409-37.581,52-56.713,77.748-26.512-19.019-52.91-38.189-79.383-57.284,17.459-24.42,35.6-48.383,52.491-73.221l1.6,2.929c.038-4.793.114-9.547.152-14.3l-.989,3.728c-24.876-18.562-50.209-36.44-75.352-54.659C113.9,63.431,132.653,37.262,151.519,11.13Z" transform="translate(236.888 27.896)" fill="#fff"/>
    <path id="路径_1260" data-name="路径 1260" d="M75.367,71.231c13.807-18.144,25.751-37.847,41.308-54.621,23.393,21.643,51.312,38.075,76.683,57.4Q165,113.319,136.569,152.593c-24.952-17.839-49.638-35.983-74.7-53.632-.494-1.179-1.56-3.537-2.054-4.717C63.385,85.647,70.232,78.915,75.367,71.231Z" transform="translate(138.45 43.26)" fill="#fff"/>
    <path id="路径_1261" data-name="路径 1261" d="M120.173,31c5.211-4.07,10.384-8.178,15.671-12.172-3.576,4.6-6.961,9.319-10.308,14.036,25.485,18.866,51.692,36.782,76.835,56.143-.533,5.4-4.641,9.509-7.417,13.96q-23.963,32.636-47.508,65.538Q186.7,196.692,225.8,225.067c-5.858,8.026-11.677,16.09-17.611,24.077-32.522-10.384-65.424-19.627-98.06-29.707l3.423-4.831q16.546-23.393,33.435-46.557c-26.132-18.828-52.225-37.809-78.433-56.523-19.133,26.322-38,52.91-57.4,79.079a15.715,15.715,0,0,1-3.423-11.183A403.879,403.879,0,0,1,53.19,100.382q7.7,5.477,15.405,10.993c19.057-27.12,39.673-53.138,57.512-81.057Z" transform="translate(-7.687 49.485)" fill="#fff"/>
    <path id="路径_1262" data-name="路径 1262" d="M65.05,130.833q28.414-39.2,56.789-78.433,39.425,28.414,78.851,56.942c-18.372,25.257-36.554,50.665-55,75.846-3.347-1.255-6.695-2.548-10-3.88C111.569,165.294,88.633,147.607,65.05,130.833Z" transform="translate(153.141 143.605)" fill="#fff"/>
    <g id="组_307" data-name="组 307" transform="translate(31.353 273.069)">
      <path id="路径_1263" data-name="路径 1263" d="M74.355,72.66c58.121,17.041,116.127,34.614,174.134,52.111C240.5,151.055,232.97,177.49,224.716,203.7c-5.668,20.844-29.783,34.081-50.4,27.349-28.68-8.292-57.17-17.155-85.812-25.523-7.8,26.208-15.557,52.377-23.621,78.509-16.28-4.869-32.56-9.89-48.954-14.53C34.416,203.584,55.26,138.388,74.355,72.66Zm44.77,30.924Q106.116,146.6,93.3,189.662c18.106,5.135,36.021,10.993,54.127,16.166,10.232,3.88,23.621-1.407,26.512-12.438,7.493-22.1,13.5-44.694,20.312-67.059C169.258,118.571,144.115,111.382,119.125,103.584Z" transform="translate(-15.93 -72.66)" fill="#fff"/>
    </g>
    <path id="路径_1264" data-name="路径 1264" d="M47.7,83.12C61.814,87.608,76,91.869,90.228,96.091L86.2,101.454c-4.793,6.2-9.357,12.666-13.541,19.323l-2.13,1.065c-10.5-3.309-18.486-11.83-27.615-17.725C44.508,97.118,46.143,90.119,47.7,83.12Z" transform="translate(91.067 229.735)" fill="#fff"/>
    <path id="路径_1265" data-name="路径 1265" d="M111.44,135.166q18.885-26.531,38.151-52.8,39.654,28.471,79.079,57.094c-2.891,3.994-5.82,7.988-8.71,11.944-13.2-3.88-26.36-7.8-39.6-11.563-7.075,11.449-11.069,24.306-14.264,37.238-4.679.609-9.281,1.407-13.884,2.434-3.423,5.706-5.553,12.1-8.064,18.258-1.978-1.407-5.972-4.184-7.95-5.591-2.206-1.674-6.656-4.945-8.9-6.58,12.286-9.776,24.838-19.627,33.587-32.94C145.521,144.066,128.367,139.654,111.44,135.166Z" transform="translate(283.205 227.633)" fill="#fff"/>
    <path id="路径_1266" data-name="路径 1266" d="M124.389,87.9c16.432,4.564,32.636,9.737,49.068,14.264-7.76,30.278-17.839,59.832-26.284,89.882,27.273-22.4,53.67-45.8,80.715-68.5,17.231,5.363,34.538,10.5,51.845,15.709-30.278,26.588-61.05,52.567-91.669,78.737q17.573,55.972,34.842,111.981c-17.383-5.249-34.69-10.612-52.149-15.519-10.384-32.826-20.54-65.728-30.886-98.554q-12.153,41.48-24.8,82.769c-16.432-4.755-32.788-9.776-49.22-14.606C84.831,218.52,104.99,153.324,124.389,87.9Z" transform="translate(155.384 243.137)" fill="#fff"/>
    <path id="路径_1267" data-name="路径 1267" d="M90.89,151.027c5.629-18.714,11.183-37.39,16.888-56.067,2.548,1.826,7.683,5.439,10.27,7.265,1.864,1.369,5.668,4.108,7.569,5.439,2.092,1.6,6.352,4.717,8.482,6.276C119.76,126.379,105.306,138.665,90.89,151.027Z" transform="translate(225.589 262.931)" fill="#fff"/>
    <path id="路径_1268" data-name="路径 1268" d="M183.873,99.63c15.481,4.564,31,9.091,46.481,13.845-3.956,13.275-7.95,26.55-11.83,39.863,4.679,1.56,9.4,3.119,14.074,4.717-1.636,5.4-3.271,10.765-4.907,16.2-4.831-1.179-9.623-2.358-14.416-3.537q-9.015,29.726-17.839,59.49c4.983.456,9.966.875,14.949,1.293-1.141,4.032-3.385,12.058-4.526,16.09L190.3,247.48c-5.4,16.812-9.585,34.005-15.443,50.666-3.385,10.08-15.253,15.519-25.295,13.846-13.2-2.51-25.827-7.151-38.684-10.879,1.293-5.591,2.625-11.107,3.994-16.66,3.2.342,9.585,1.027,12.78,1.331,4.907-13.96,8.977-28.224,13.275-42.373-4.907-.342-9.814-.685-14.682-1.027q2.91-8.958,5.934-17.839c3.423.609,10.194,1.826,13.617,2.434,7.113-23.431,14.036-46.938,21.073-70.407-4.564-1.407-9.129-2.853-13.693-4.222,1.826-5.629,3.652-11.259,5.515-16.888,4.412,1.407,8.863,2.815,13.275,4.222Q177.9,119.657,183.873,99.63Z" transform="translate(281.635 276.025)" fill="#fff"/>
    <path id="路径_1269" data-name="路径 1269" d="M197.7,107.07c21.757,6.124,43.4,12.742,65.12,19.209,2.244,30.81,4.526,61.582,7.341,92.354-14.949-4.26-29.783-8.787-44.694-13.2-1.864-19.209-2.587-38.494-4.755-57.664-12.248,15.139-24.458,30.316-37.086,45.188Q161.49,186,139.2,179.759C158.6,155.415,178.264,131.376,197.7,107.07Z" transform="translate(361.036 296.884)" fill="#fff"/>
    <path id="路径_1270" data-name="路径 1270" d="M139.22,145.1c1.712-5.553,3.423-11.107,5.1-16.66q58.083,17.744,116.356,34.728c-1.445,5.706-2.891,11.411-4.374,17.117C217.234,168.645,178.17,157.006,139.22,145.1Z" transform="translate(361.092 356.8)" fill="#fff"/>
    <g id="组_308" data-name="组 308" transform="translate(469.008 510.915)">
      <path id="路径_1271" data-name="路径 1271" d="M157.464,135.19c40.205,12.21,80.525,24.039,120.73,36.211-7.417,22.936-13.237,46.443-21.263,69.19-3.423,10.8-16.622,16.736-27.006,12.4-33.054-9.509-65.842-19.969-98.935-29.479C139.662,194.033,148.6,164.593,157.464,135.19Zm39.711,30.7c-5.021,18.144-10.726,36.135-15.938,54.2,9.776,2.967,19.513,6.809,29.821,7.455,7.646-16.927,11.221-35.3,17.117-52.834C217.9,171.477,207.6,168.473,197.175,165.886Z" transform="translate(-130.99 -135.19)" fill="#fff"/>
    </g>
  </g>
  <g id="组_311" data-name="组 311" transform="translate(32.712 0.19)">
    <g id="组_310" data-name="组 310" transform="translate(114.378)">
      <path id="路径_1272" data-name="路径 1272" d="M218.167,3.169c6.2-1.027,12.362-2.168,18.6-3.119C244.3.392,252.477.43,258.6,5.565c17.079,11.868,33.625,24.61,50.627,36.63-18.866,26.132-37.619,52.3-56.6,78.318,25.143,18.22,50.475,36.1,75.352,54.659l.989-3.728c-.038,4.755-.114,9.509-.152,14.3l-1.6-2.929c-16.888,24.838-35.032,48.8-52.491,73.221,26.474,19.095,52.872,38.265,79.383,57.284,19.133-25.751,37.162-52.339,56.713-77.748,24.306,15.405,46.748,33.587,70.407,49.981,2.054,1.522,6.2,4.526,8.292,6.048-18.866,26.284-37.885,52.453-56.828,78.661q-39.482-28.642-79.079-57.094-19.228,26.3-38.151,52.8c-4.564-1.141-9.091-2.32-13.617-3.461-6.771,5.9-13.465,11.868-20.16,17.839-3.233-2.168-6.466-4.336-9.661-6.58-1.9-1.331-5.706-4.07-7.569-5.439-3.423-2.625-6.809-5.287-10.156-7.912.723-5.591,1.407-11.145,2.092-16.7-12.286-3.8-24.648-7.341-36.744-11.753,18.448-25.181,36.63-50.589,55-75.846q-39.368-28.528-78.851-56.942-28.414,39.2-56.789,78.433c23.583,16.774,46.519,34.462,70.635,50.475-3.233.228-9.661.723-12.857.951-11.221,21-12.438,45.911-23.887,66.907,4.336-24.686,15.139-47.737,18.41-72.651-23.279-7.341-46.748-14-69.988-21.491,5.934-7.988,11.753-16.052,17.611-24.077q-39.14-28.3-78.356-56.561,23.564-32.864,47.508-65.538c2.777-4.45,6.885-8.558,7.417-13.96C90.362,122.3,64.155,104.386,38.67,85.519,42.017,80.8,45.4,76.086,48.978,71.484,72.181,54.215,97.78,40.217,124.406,29,138.9,39.3,153.77,49.156,167.312,60.719c4.07.342,8.178.647,12.286.913l-2.32-2.244C191.275,40.9,204.7,22.035,218.167,3.169Zm-83.53,114.492c-5.135,7.684-11.982,14.416-15.557,23.012.494,1.179,1.56,3.537,2.054,4.717,25.066,17.649,49.753,35.793,74.7,53.632q28.414-39.311,56.789-78.585c-25.371-19.323-53.29-35.755-76.683-57.4C160.389,79.814,148.445,99.517,134.638,117.661Z" transform="translate(-38.67 -0.05)"/>
    </g>
    <path id="路径_1273" data-name="路径 1273" d="M19.65,91.914c19.171-25.9,41.537-49.6,66.983-69.38l5.934-.685C74.728,49.769,54.112,75.787,35.055,102.907Q27.353,97.373,19.65,91.914Z" transform="translate(22.381 61.071)"/>
    <path id="路径_1274" data-name="路径 1274" d="M172.464,26.27c27.006,17.839,52.567,37.733,79,56.371-18.828,26.208-37.885,52.225-56.523,78.547C168.7,141.218,140.7,123.607,115.56,102.23c19.095-21.681,34.386-46.329,51.769-69.342C168.622,31.253,171.17,27.944,172.464,26.27Z" transform="translate(291.285 73.463)"/>
    <path id="路径_1275" data-name="路径 1275" d="M8.6,122.279C28,96.11,46.865,69.522,66,43.2c26.208,18.714,52.3,37.695,78.433,56.523Q127.542,122.888,111,146.281c-6.923,2.472-14.378,3.309-21.111,6.2-3.766,6.885-5.706,14.568-8.254,21.947-19.7-14.15-39.254-28.566-59.072-42.526C17.919,128.669,13.241,125.512,8.6,122.279Z" transform="translate(-8.6 120.93)"/>
    <path id="路径_1276" data-name="路径 1276" d="M64.3,92.482c1.179-1.56,3.614-4.641,4.831-6.162C75.482,88.45,81.8,90.542,88.149,92.6q-6.048,20.939-12.4,41.727c-8.1-6.733-19.209-10.384-25.028-19.361l.038-3.157C54.942,105.148,59.507,98.682,64.3,92.482Z" transform="translate(109.492 241.826)"/>
    <path id="路径_1277" data-name="路径 1277" d="M100.1,159.8c19.589-16.812,39.026-33.891,59-50.285,2.244,1.636,6.695,4.907,8.9,6.58,7,5.972,13.313,12.628,19.931,19.019-4.679,15.443-8.178,31.3-14.264,46.291-2.32,7.988-11.373,9.7-17.687,13.389-3.043,8.711-5.9,17.459-8.787,26.208-11.83-8.863-25.219-16.09-35.3-27.006C106.034,183.378,103.79,171.244,100.1,159.8Z" transform="translate(247.94 306.844)"/>
  </g>
  <g id="组_317" data-name="组 317" transform="translate(36.059 236.667)">
    <g id="组_312" data-name="组 312">
      <path id="路径_1278" data-name="路径 1278" d="M571.555,117.222q19.8-27.558,39.749-55c7.95,6.5,15.823,13.047,23.659,19.7-40.319,56.371-81.856,111.867-121.757,168.543,4.222,4.26,8.406,8.558,12.628,12.819,10.156-11.3,18.714-24.078,29.973-34.31,5.858-6.162,14.8-1.141,21.757-.114,17.345,5.477,35.565,9.015,51.883,17.231,7.8,5.211,5.021,16.584,6.809,24.61.8,21.643,4.374,43.134,4.3,64.777-1.369,12.933-10.955,23.127-13.807,35.679-6.428,27.159-12.514,54.7-23.393,80.487-5.706,13.96-22.86,17.041-35.983,13.085-27.691-7.075-54.7-16.66-82.274-24.077-7.379-3.233-20.54-3.728-19.437-14.606,2.51-23.583,14.53-45.112,16.736-68.885-6.695,16.7-9.928,34.614-17.307,51.046a27.95,27.95,0,0,1-23.925,16.318c-19.7.685-38.341-7.227-55.344-16.432-21.225-1.978-42.792-6.352-61.658-16.584-12.971-23.279-16.394-50.7-25.789-75.542-7.227,19.513-10.612,40.4-19.437,59.338-1.255.495-3.842,1.483-5.1,2.016-19.437-2.016-38.684-8.026-56.257-16.584-2.282-12.324,3.88-24.42,6.961-36.173,8.558-24.648,13.2-50.437,22.1-74.971a53.024,53.024,0,0,1-53.024,19.019c-27.577-6.352-54.089-16.546-81.514-23.621-9.243,24.876-12.552,52-25.066,75.542C66.231,317.6,43.675,313.379,26.6,300.6c.685-11.525,4.488-22.518,7.836-33.473,9.281-29.022,17.383-58.425,26.7-87.447,2.853-9.585,6.314-19.323,5.972-29.441C49.685,133.5,27.928,122.014,9.48,106.5q5.249-13.979,10.612-27.919C39.91,92.536,59.461,106.952,79.164,121.1c2.548-7.379,4.488-15.063,8.254-21.947,6.733-2.891,14.188-3.728,21.111-6.2l-3.423,4.831c32.636,10.08,65.538,19.323,98.06,29.707,23.241,7.493,46.71,14.15,69.988,21.491-3.271,24.914-14.074,47.965-18.41,72.651,11.449-21,12.666-45.911,23.887-66.907,3.2-.228,9.623-.723,12.857-.951,3.309,1.331,6.656,2.625,10,3.88,12.1,4.412,24.458,7.95,36.744,11.753-.685,5.553-1.369,11.107-2.092,16.7,3.347,2.625,6.733,5.287,10.156,7.912-2.587-1.826-7.722-5.439-10.27-7.265-5.706,18.676-11.259,37.352-16.888,56.067,14.416-12.362,28.87-24.648,43.21-37.086-2.13-1.56-6.39-4.679-8.482-6.276,3.2,2.244,6.428,4.412,9.661,6.58,6.695-5.972,13.389-11.944,20.16-17.839,4.526,1.141,9.053,2.32,13.617,3.461,16.927,4.488,34.081,8.9,49.448,17.5-8.749,13.313-21.3,23.165-33.587,32.94-19.97,16.394-39.406,33.473-59,50.285,3.69,11.449,5.934,23.583,11.792,34.2,10.08,10.917,23.469,18.144,35.3,27.006,2.891-8.749,5.744-17.5,8.787-26.208,6.314-3.69,15.367-5.4,17.687-13.389C433.822,299,437.322,283.14,442,267.7c-6.618-6.39-12.933-13.047-19.931-19.019,1.978,1.407,5.972,4.184,7.95,5.591,2.51-6.162,4.641-12.552,8.064-18.258,4.6-1.027,9.2-1.826,13.884-2.434,3.2-12.933,7.189-25.789,14.264-37.238,13.237,3.766,26.4,7.684,39.6,11.563,2.891-3.956,5.82-7.95,8.71-11.944,18.943-26.208,37.961-52.377,56.828-78.661-2.092-1.521-6.238-4.526-8.292-6.048C565.2,112.733,569.463,115.738,571.555,117.222ZM92.439,101.931C73.344,167.659,52.5,232.855,34.014,298.773c16.394,4.641,32.674,9.661,48.954,14.53,8.064-26.132,15.823-52.3,23.621-78.509,28.642,8.368,57.132,17.231,85.812,25.523,20.616,6.733,44.732-6.5,50.4-27.349,8.254-26.208,15.785-52.643,23.773-78.927C208.566,136.545,150.56,118.971,92.439,101.931Zm190,57.969c-19.4,65.424-39.559,130.62-58.539,196.158,16.432,4.831,32.788,9.852,49.22,14.606q12.609-41.308,24.8-82.769c10.346,32.826,20.5,65.728,30.886,98.554,17.459,4.907,34.766,10.27,52.149,15.519q-17.174-56.086-34.842-111.981c30.62-26.17,61.392-52.149,91.669-78.737-17.307-5.211-34.614-10.346-51.845-15.709-27.044,22.708-53.442,46.1-80.715,68.5,8.444-30.049,18.524-59.6,26.284-89.882C315.07,169.637,298.867,164.464,282.434,159.9ZM468.17,204.517q-5.991,20.027-11.906,40.053c-4.412-1.407-8.863-2.815-13.275-4.222-1.864,5.629-3.69,11.259-5.515,16.888,4.564,1.369,9.129,2.815,13.693,4.222-7.037,23.469-13.96,46.976-21.073,70.407-3.423-.609-10.194-1.826-13.617-2.434q-3.024,8.9-5.934,17.839c4.869.342,9.776.685,14.682,1.027-4.3,14.15-8.368,28.414-13.275,42.373-3.2-.3-9.585-.989-12.78-1.331-1.369,5.553-2.7,11.069-3.994,16.66,12.857,3.728,25.485,8.368,38.684,10.879,10.042,1.674,21.909-3.766,25.295-13.846,5.858-16.66,10.042-33.853,15.443-50.666l15.557.114c1.141-4.032,3.385-12.058,4.526-16.09-4.983-.418-9.966-.837-14.949-1.293q8.787-29.783,17.839-59.49c4.793,1.179,9.585,2.358,14.416,3.537,1.636-5.439,3.271-10.8,4.907-16.2-4.679-1.6-9.4-3.157-14.074-4.717,3.88-13.313,7.874-26.588,11.829-39.863C499.17,213.608,483.651,209.081,468.17,204.517ZM252.956,226.16c-4.222,4.032-7.3,11.373-5.021,17.041C253.64,242.9,258.281,228.709,252.956,226.16ZM561.4,232.817c-19.437,24.306-39.1,48.345-58.5,72.689q22.309,6.219,44.427,13.2c12.628-14.872,24.838-30.049,37.086-45.188,2.168,19.171,2.891,38.456,4.755,57.664,14.911,4.412,29.745,8.939,44.694,13.2-2.815-30.772-5.1-61.544-7.341-92.354C604.8,245.559,583.156,238.941,561.4,232.817Zm-3.005,88.817c7.646,1.864,15.253,3.69,22.9,5.515-1.1-11.069-2.32-22.138-3.88-33.13A159.73,159.73,0,0,0,558.394,321.633Zm-61.088-17.269q-3.423,10.955-6.428,22.1c1.56.989,4.641,3,6.162,3.994C498.181,321.785,499.018,313,497.306,304.364Zm5.668,26.4c38.95,11.906,78.014,23.545,117.078,35.184,1.483-5.706,2.929-11.411,4.374-17.117Q566.172,331.77,508.071,314.1C506.4,319.655,504.685,325.209,502.974,330.762Zm-4.831,9.015c-8.863,29.4-17.8,58.843-26.474,88.322,33.092,9.509,65.88,19.969,98.935,29.479,10.384,4.336,23.583-1.6,27.006-12.4,8.026-22.746,13.846-46.253,21.263-69.19C578.668,363.816,538.348,351.987,498.143,339.777Zm-116.812,34.8,6.048,21.909c2.282-4.6,4.564-9.167,6.847-13.731C389.889,380.02,385.629,377.32,381.331,374.581Z" transform="translate(-9.48 -62.22)" fill="#1a61da"/>
    </g>
    <g id="组_313" data-name="组 313" transform="translate(101.901 70.635)">
      <path id="路径_1279" data-name="路径 1279" d="M62.1,80.79c24.99,7.8,50.133,14.987,75.123,22.746C130.412,125.9,124.4,148.5,116.909,170.6c-2.891,11.031-16.28,16.318-26.512,12.438C72.291,177.861,54.376,172,36.27,166.868Q49.108,123.791,62.1,80.79Zm4.222,8.863c-1.56,7-3.2,14-4.793,21,9.129,5.9,17.117,14.416,27.615,17.725l2.13-1.065-.038,3.157c5.82,8.977,16.927,12.628,25.028,19.361Q122.6,129,128.662,108.1c-6.352-2.054-12.666-4.146-19.019-6.276-1.217,1.521-3.652,4.6-4.831,6.162l4.032-5.363C94.619,98.4,80.431,94.141,66.319,89.653ZM52.208,141.535c-1.94,6.542-3.918,13.123-5.858,19.665,17.954,5.782,35.907,11.792,54.507,14.911A276.52,276.52,0,0,0,52.208,141.535Z" transform="translate(-36.27 -80.79)" fill="#1a61da"/>
    </g>
    <g id="组_314" data-name="组 314" transform="translate(512.436 308.253)">
      <path id="路径_1280" data-name="路径 1280" d="M160.138,143.26c10.422,2.587,20.73,5.591,31,8.825-5.9,17.535-9.471,35.907-17.117,52.834-10.308-.647-20.046-4.488-29.821-7.455C149.411,179.4,155.117,161.4,160.138,143.26Zm4.526,11.031c-3.728,13.161-7.037,26.4-9.776,39.749,4.945.456,9.852.875,14.8,1.331a290.77,290.77,0,0,0,10.726-39.559C175.162,155.28,169.913,154.785,164.664,154.291Z" transform="translate(-144.2 -143.26)" fill="#1a61da"/>
    </g>
    <path id="路径_1281" data-name="路径 1281" d="M73.866,157.68l8.558.609c-.761,5.4-1.6,10.765-2.587,16.166,4.184,7,10.536,14.264,5.591,22.822-3.309-3.576-6.618-7.189-9.89-10.8-4.907,20.654-10.726,41.08-16.242,61.544-2.4-.494-7.189-1.445-9.547-1.94C57.928,216.676,64.775,186.816,73.866,157.68Z" transform="translate(103.426 205.422)" fill="#1a61da"/>
    <g id="组_315" data-name="组 315" transform="translate(165.385 372.041)">
      <path id="路径_1282" data-name="路径 1282" d="M101.229,160.03c3.385.913,6.733,1.864,10.08,2.815L107.2,176.538c7.684,2.092,15.405,4.184,23.089,6.314-2.51,9.243-5.021,18.486-7.3,27.805,2.663,3.956,6.048,7.874,5.782,13.009-10.536-.723-20.616-3.994-30.81-6.428,3.537,13.123,11.183,24.42,21.415,33.282-2.967,2.32-5.934,4.679-8.939,7.037a86.31,86.31,0,0,1-20.312-32.94c-9.053,8.1-18.676,17.231-31.267,18.9-1.483-1.978-4.412-5.972-5.9-7.95,12.628-4.146,24.838-10.08,32.826-21.073C78.1,210.772,65.132,211.38,65.7,199.665c7.722,1.483,15.367,3.2,23.012,4.983,2.13-7.075,4.26-14.074,6.39-21.111-5.173-1.6-10.346-3.157-15.519-4.717.8-2.282,2.358-6.809,3.157-9.091,4.831,1.483,9.661,3.043,14.492,4.564Zm3.385,25.9c-1.94,7.265-3.88,14.53-5.744,21.833,3.385.913,10.156,2.7,13.541,3.614,1.407-7.3,5.629-14.911,4.108-22.328C112.6,187.873,108.608,186.846,104.614,185.933Z" transform="translate(-52.96 -160.03)" fill="#1a61da"/>
    </g>
    <path id="路径_1283" data-name="路径 1283" d="M49.58,192.615c2.168-11.411,4.945-23.811,14.72-31.3C63.007,172.873,60.725,186.3,49.58,192.615Z" transform="translate(102.949 215.6)" fill="#1a61da"/>
    <g id="组_316" data-name="组 316" transform="translate(288.283 397.184)">
      <path id="路径_1284" data-name="路径 1284" d="M85.27,168.922l10.5-2.282c.342,3.043.989,9.167,1.293,12.248a174.866,174.866,0,0,1,34.69,4.6,26.584,26.584,0,0,1,12.286-8.368c-.19,4.032-.418,8.026-.685,12.058,9.2,3.994,25.789,1.9,26.436,15.025-10.879-.342-26.626-13.389-32.864.494,8.216,2.358,16.47,4.6,24.724,6.809-2.282,8.444-4.641,16.889-7,25.371-8.558-2.13-17.345-5.706-26.246-3.233,11.031,4.108,19.627,12.172,27.425,20.73-10.879,10.384-18.258-7.113-26.512-12.552-2.282,6.885-3.8,15.025-13.009,14.987.989-6.39,2.054-12.7,3.2-19.057q-13.522,4.964-27.235,9.167c-.418-2.32-1.255-7-1.636-9.319,9.814-2.51,19.589-5.249,29.174-8.6-6.695-2.472-13.465-4.755-20.236-6.961q3.309-12.552,6.618-25.028c7.95,1.94,15.9,3.956,24,5.287.076-1.94.228-5.858.342-7.836-12.21-5.439-25.713-6.276-38.874-5.553Q88.465,177.956,85.27,168.922Zm26.322,37.466c-.038,2.4-.076,7.113-.114,9.471,3.2.837,9.623,2.51,12.819,3.347.647-4.032,1.293-8.064,1.9-12.058C121.329,206.883,116.46,206.617,111.592,206.389Zm24.648,3.994c-.571,2.815-1.788,8.444-2.358,11.221,5.059,1.293,10.08,2.587,15.177,3.842C154.155,214.529,144,212.893,136.24,210.383Z" transform="translate(-85.27 -166.64)" fill="#1a61da"/>
    </g>
    <path id="路径_1285" data-name="路径 1285" d="M89.8,182.29l3.956-8.52c5.934,1.674,11.83,3.309,17.8,4.945-3.233,12.857-6.58,25.713-10.384,38.455,4.07,4.565,7.569,10.27,13.693,12.362,18.068,6.771,37.2,10.042,55.762,15.215-1.293,1.636-3.842,4.945-5.1,6.58-16.47-2.054-32.255-7.569-48.155-12.058-9.623-2.358-16.965-9.167-23.7-16.014-4.032,2.472-8.064,4.945-12.058,7.455-.685-2.549-2.054-7.569-2.7-10.118,4.45-2.244,8.939-4.488,13.427-6.733,2.587-9.433,5.135-18.828,7.76-28.224C97.52,184.8,92.347,183.127,89.8,182.29Z" transform="translate(185.21 250.534)" fill="#1a61da"/>
  </g>
  <g id="组_319" data-name="组 319" transform="translate(22.518 400.607)">
    <path id="路径_1286" data-name="路径 1286" d="M77.762,105.32c5.325,2.548.685,16.736-5.021,17.041C70.459,116.693,73.54,109.352,77.762,105.32Z" transform="translate(179.255 -105.32)" fill="#afd3ff"/>
    <g id="组_318" data-name="组 318" transform="translate(0 108.976)">
      <path id="路径_1287" data-name="路径 1287" d="M5.92,133.97c187.865,63.712,376,126.55,563.672,190.642-57.018,37.086-124.153,57.512-191.973,60.517H350.308c-52.225-2.472-104.146-14.568-151.236-37.5C110.066,305.251,39.2,226.743,5.92,133.97Zm190.832,90.186c-9.091,29.136-15.938,59-24.116,88.4,2.358.495,7.151,1.445,9.547,1.94,5.515-20.464,11.335-40.89,16.242-61.544,3.271,3.614,6.58,7.227,9.89,10.8,4.945-8.558-1.407-15.823-5.591-22.822.989-5.4,1.826-10.765,2.587-16.166Zm36.364,8.939-3.994,14.264c-4.831-1.521-9.661-3.081-14.492-4.564-.8,2.282-2.358,6.809-3.157,9.091,5.173,1.56,10.346,3.119,15.519,4.717-2.13,7.037-4.26,14.036-6.39,21.111-7.645-1.788-15.291-3.5-23.012-4.983-.571,11.715,12.4,11.107,20.084,14.835-7.988,10.993-20.2,16.927-32.826,21.073,1.483,1.978,4.412,5.972,5.9,7.95,12.59-1.674,22.214-10.8,31.267-18.9a86.31,86.31,0,0,0,20.312,32.94c3-2.358,5.972-4.717,8.939-7.037-10.232-8.863-17.877-20.16-21.415-33.282,10.194,2.434,20.274,5.706,30.81,6.428.266-5.135-3.119-9.053-5.782-13.009,2.282-9.319,4.793-18.562,7.3-27.805-7.684-2.13-15.405-4.222-23.089-6.314L243.2,235.91C239.848,234.959,236.5,234.008,233.116,233.095ZM171.99,269.268c11.145-6.314,13.427-19.741,14.72-31.3C176.935,245.457,174.158,257.857,171.99,269.268Zm135.754-8.748q3.2,9.015,6.39,17.992c13.161-.723,26.664.114,38.874,5.553-.114,1.978-.266,5.9-.342,7.836-8.1-1.331-16.052-3.347-24-5.287q-3.309,12.5-6.618,25.028c6.771,2.206,13.541,4.488,20.236,6.961-9.585,3.347-19.361,6.086-29.174,8.6.38,2.32,1.217,7,1.636,9.319q13.693-4.222,27.235-9.167c-1.141,6.352-2.206,12.666-3.2,19.057,9.2.038,10.726-8.1,13.009-14.987,8.254,5.439,15.633,22.936,26.512,12.552-7.8-8.558-16.394-16.622-27.425-20.73,8.9-2.472,17.687,1.1,26.246,3.233,2.358-8.482,4.717-16.927,7-25.371-8.254-2.206-16.508-4.45-24.724-6.809,6.238-13.884,21.985-.837,32.864-.494-.647-13.123-17.231-11.031-26.436-15.025.266-4.032.494-8.026.685-12.058a26.584,26.584,0,0,0-12.286,8.368,174.866,174.866,0,0,0-34.69-4.6c-.3-3.081-.951-9.205-1.293-12.248ZM294.47,293.878c2.548.837,7.722,2.51,10.308,3.347-2.625,9.4-5.173,18.79-7.76,28.224-4.488,2.244-8.977,4.488-13.427,6.733.647,2.548,2.016,7.569,2.7,10.118,3.994-2.51,8.026-4.983,12.058-7.455,6.733,6.847,14.074,13.655,23.7,16.014,15.9,4.488,31.685,10,48.155,12.058,1.255-1.636,3.8-4.945,5.1-6.58-18.562-5.173-37.695-8.444-55.762-15.215-6.124-2.092-9.623-7.8-13.693-12.362,3.8-12.742,7.151-25.6,10.384-38.455-5.972-1.636-11.868-3.271-17.8-4.945Z" transform="translate(-5.92 -133.97)" fill="#afd3ff"/>
    </g>
    <path id="路径_1288" data-name="路径 1288" d="M70.774,166.84c3.994.913,7.988,1.94,11.906,3.119,1.521,7.417-2.7,15.025-4.108,22.328-3.385-.913-10.156-2.7-13.541-3.614C66.894,181.37,68.834,174.105,70.774,166.84Z" transform="translate(159.808 67.164)" fill="#afd3ff"/>
    <path id="路径_1289" data-name="路径 1289" d="M92.274,177.09c4.869.228,9.737.495,14.606.761-.609,3.994-1.255,8.026-1.9,12.058-3.2-.837-9.623-2.51-12.819-3.347C92.2,184.2,92.236,179.486,92.274,177.09Z" transform="translate(235.872 95.903)" fill="#afd3ff"/>
    <path id="路径_1290" data-name="路径 1290" d="M100.408,178.14c7.76,2.51,17.915,4.146,12.819,15.063-5.1-1.255-10.118-2.549-15.177-3.842C98.621,186.584,99.838,180.955,100.408,178.14Z" transform="translate(252.386 98.846)" fill="#afd3ff"/>
  </g>
</svg>
