<svg xmlns="http://www.w3.org/2000/svg" width="854.072" height="854.072" viewBox="0 0 854.072 854.072">
  <g id="时时彩" transform="translate(-7640 -146)">
    <g id="组_304" data-name="组 304" transform="translate(7640 146)">
      <g id="组_289" data-name="组 289" transform="translate(32.839)">
        <path id="路径_1207" data-name="路径 1207" d="M349.283,0h29.209c57.18,4.27,114.061,17.508,165.519,43.3C382.25,84.083,219.891,122.517,57.959,162.658c-12.042,3.075-24.256,5.423-36.469,7.772C29.6,165.092,37.5,159.5,45.874,154.587c73.109-42.02,145.79-84.809,218.813-126.915,13.324-7.26,26.092-15.5,38.647-24.042A402.957,402.957,0,0,1,349.283,0Z" transform="translate(37.441)" fill="#0042c8"/>
        <path id="路径_1208" data-name="路径 1208" d="M150.6,158.265c83.827-19.131,166.245-44.583,250.414-62.3-69.65,57.308-125.976,130.331-164.879,211.6-23.145-31.344-49.622-62.3-85.877-78.7-14.178-8.8-31.515-10.035-45.778-18.277-.854-9.651-.427-19.345-.342-29.038H159.1C156.494,173.681,153.8,165.866,150.6,158.265Z" transform="translate(307.139 313.824)" fill="#0042c8"/>
        <g id="组_287" data-name="组 287" transform="translate(651.956 460.558)">
          <path id="路径_1209" data-name="路径 1209" d="M206.864,107.85c3.331,2.221,6.662,4.441,10.035,6.662-6.833,9.993-13.324,20.2-19.558,30.576,2.263,1.409,6.747,4.185,9.01,5.594q8.583-13.259,17.124-26.519,14.669,9.672,29.508,19.046c-5.722,8.669-12.042,17.124-16.484,26.6,2.007,1.452,5.978,4.313,7.986,5.765-.342-2.477-1.025-7.473-1.367-9.95,9.651-6.406,19.985-11.573,30.106-17.167,1.58,4.527,3.2,9.1,4.826,13.622-10.334,4.7-20.5,9.694-30.661,14.69q8.583,5.7,17.167,11.487c-1.964,2.733-5.808,8.156-7.772,10.889-6.149-3.8-12.256-7.559-18.363-11.4a132.326,132.326,0,0,1,1.495,36.939c-3.63-.085-10.889-.256-14.519-.384a218.819,218.819,0,0,0,1.281-38.86A182.461,182.461,0,0,0,212.5,206.88c-11.06-4.7-20.839-11.7-30.533-18.661,5.893-8.455,11.573-17.081,17.124-25.708-2.391-1.495-7.217-4.441-9.608-5.936q-9.352,15.117-19.046,30.063c-2.52-1.495-7.559-4.441-10.078-5.936q9.865-15.245,19.473-30.619c-2.52-1.623-7.6-4.868-10.121-6.534,1.836-2.861,5.466-8.583,7.3-11.445,3.459,2.05,6.961,4.1,10.462,6.192C193.882,128.134,200.416,118.014,206.864,107.85Zm17.466,34.077c-2.9,4.826-5.765,9.651-8.669,14.434,3.544,2.434,7.046,4.868,10.633,7.3,3.331-5.253,6.7-10.548,10.035-15.8C232.358,145.9,228.344,143.892,224.33,141.927ZM207.676,168.4c-3.117,5.167-6.192,10.334-9.309,15.5,3.8,2.135,7.559,4.313,11.317,6.448,3.075-5.338,6.149-10.633,9.1-16.014C215.106,172.332,211.391,170.368,207.676,168.4Z" transform="translate(-160.36 -107.85)" fill="#0042c8"/>
        </g>
        <path id="路径_1210" data-name="路径 1210" d="M370.2,116.32c12-.384,24.042-.342,36.085-.3-.043,8.541-.085,17.124-.6,25.665-16.313,1.068-33.608-3.245-49.152,3.075-45.052,4.27-86.6,27.885-117.179,60.6-25.622,22.547-36.085,56.027-51.159,85.535-4.868-1.58-9.651-3.245-14.477-4.868l-11.957-4.783c1.794-18.064,11.914-33.779,14.348-51.671-9.352.641-18.7,1.367-28.056,2.092-22.12,9.608-41.978,27.586-48.725,51.287a165.635,165.635,0,0,0,.214,38.476c4.826,18.405,19.259,31.473,33.181,43.344,7.26-19.686,12.427-40.1,20.711-59.4.256-2.648.811-7.9,1.068-10.505,11.743,2.861,23.615,5.594,34.633,10.633-2.263,17.039-10.078,35.871-1.58,52.355.6,8.583.555,17.338,3.459,25.579,1.537,5.722,3.075,11.487,4.911,17.167l1.2,7.857c4.7,11.188,13.964,19,25.281,22.975,48.042,22.462,100.311,34.163,152.836,39.672-7.986,1.409-16.142,2.007-24.17.683-44.284-5.552-87.841-17.551-128.324-36.426C126.534,391.288,48.429,309.9,7.69,212.275c24.085-8.114,48.981-13.238,73.493-19.9,87.158-22.377,174.273-45.1,261.56-67.215C352.052,122.725,361.062,119.394,370.2,116.32Z" transform="translate(-7.69 379.341)" fill="#0042c8"/>
        <path id="路径_1211" data-name="路径 1211" d="M283.276,119.38c2.9,3.587,5.808,7.174,8.754,10.761-14.861,21.565-27.416,44.8-44.2,64.995-5.381,7.046-13.964,9.608-22.121,11.786,1.537,6.79,3.2,13.58,4.954,20.327-3.63-.384-10.975-1.11-14.647-1.452-1.922-6.406-2.007-13.751-5.808-19.345-9.267-7.217-19.686-12.768-29.423-19.345-2.648,3.374-5.338,6.7-7.986,10.078-2.69-1.836-8.071-5.551-10.761-7.388,4.74-7.3,9.395-14.69,14.05-22.035,14.007,8.284,26.989,18.234,41.337,25.964,12.555,3.886,23.145-6.747,29.551-16.227C259.319,158.283,271.66,139.066,283.276,119.38Z" transform="translate(497.09 390.416)" fill="#0042c8"/>
        <path id="路径_1212" data-name="路径 1212" d="M157.165,129a208.259,208.259,0,0,0,27.757-2.05c0,3.929-.043,11.786-.043,15.672q-14.733.064-29.38.043C155.927,139.249,156.738,132.416,157.165,129Z" transform="translate(475.702 415.172)" fill="#0042c8"/>
        <g id="组_288" data-name="组 288" transform="translate(587.602 583.16)">
          <path id="路径_1213" data-name="路径 1213" d="M169.716,163.164c5.68-8.882,11.4-17.765,17.081-26.6,11.872,7.473,23.743,14.989,35.4,22.8,3.032-11.487,11.4-4.569,18.149-1.2-7.217,10.975-14.434,21.95-21.1,33.309,17.466,1.58,34.248-4.569,48.469-14.391,1.836,5.3,3.673,10.59,5.551,15.843-15.288,7.473-31.942,14.22-49.323,11.274,9.352,14.69,13.025,31.857,12.9,49.152-3.971.256-11.957.811-15.928,1.11-.342-11.658.982-24.128-4.569-34.846-2.263-4.228-4.185-11.06-10.292-7.772-4.4,5.765-7.943,12.042-11.658,18.234-3.843-2.648-7.729-5.253-11.573-7.858q7.238-11.4,14.348-22.889-12.107-8.327-24.213-16.484c-3.672,5.594-7.3,11.188-11.018,16.74-2.818-1.623-8.413-4.868-11.188-6.491,3.587-5.68,7.174-11.317,10.889-16.911-5.381-3.886-10.847-7.559-16.355-11.1,2.989-4.1,5.979-8.2,8.968-12.256C159.382,156.289,164.549,159.748,169.716,163.164Zm11.487,7.217c8.028,5.551,16.1,11.1,24.085,16.783,3.288-5.167,6.576-10.377,9.907-15.5l-24.854-16.014C187.268,160.559,184.236,165.47,181.2,170.381Z" transform="translate(-145.29 -136.56)" fill="#0042c8"/>
        </g>
        <path id="路径_1214" data-name="路径 1214" d="M138.98,163.23c2.477-4.228,5-8.455,7.559-12.64,6.064,4.014,12.171,8.028,18.234,12.085,7.345-2.819,14.647-5.637,21.992-8.5,1.964,4.783,3.929,9.608,5.893,14.434-3.288.726-9.907,2.178-13.2,2.9,23.06,15.758,47.145,30.021,70.461,45.479-2.52,3.971-5.039,7.986-7.516,11.957C207.775,207.258,173.57,184.924,138.98,163.23Z" transform="translate(421.676 492.483)" fill="#0042c8"/>
        <path id="路径_1215" data-name="路径 1215" d="M142.41,163.732c1.623-1.409,4.911-4.27,6.534-5.722,10.462,6.064,19.131,14.562,28.483,22.078l-6.833,7.516C161.584,179.148,152.061,171.376,142.41,163.732Z" transform="translate(432.893 516.75)" fill="#0042c8"/>
        <path id="路径_1216" data-name="路径 1216" d="M243.09,190.81c3.288,5.68,6.875,11.231,10.462,16.74l1.495,2.135c-33.992,11.188-69.436,16.484-104.923,20.37H92.56l6.277-3.672c50.3.982,100.951-3.459,149.164-18.533C246.079,202.255,244.5,196.532,243.09,190.81Z" transform="translate(269.865 624.017)" fill="#0042c8"/>
      </g>
      <g id="组_290" data-name="组 290" transform="translate(20.284 3.63)">
        <path id="路径_1217" data-name="路径 1217" d="M19.76,169.572C87.872,77.2,194.8,14.045,308.991.85c-12.555,8.541-25.323,16.783-38.647,24.042C197.322,67,124.64,109.787,51.531,151.807c-8.37,4.911-16.27,10.505-24.384,15.843C25.311,168.12,21.639,169.1,19.76,169.572Z" transform="translate(44.338 -0.85)" fill="#002b82"/>
        <path id="路径_1218" data-name="路径 1218" d="M107.7,180.27q193-50.091,386.041-99.67c.427,2.178,1.238,6.576,1.665,8.8-39.5,10.334-74.518,32.284-106.631,56.8-84.169,17.722-166.587,43.173-250.414,62.3A152.714,152.714,0,0,0,107.7,180.27Z" transform="translate(331.934 259.961)" fill="#002b82"/>
        <path id="路径_1219" data-name="路径 1219" d="M4.75,199.288c115.727-29.935,231.624-59.443,347.266-89.848-5.039,8.84-8.669,18.277-11.957,27.843,13.238.043,26.519.3,39.757.47-9.139,3.075-18.149,6.406-27.458,8.84-87.286,22.12-174.4,44.839-261.56,67.215-24.512,6.662-49.408,11.786-73.493,19.9C12.65,222.434,8.508,210.9,4.75,199.288Z" transform="translate(-4.75 354.278)" fill="#002b82"/>
      </g>
      <g id="组_292" data-name="组 292" transform="translate(0 43.301)">
        <g id="组_291" data-name="组 291">
          <path id="路径_1220" data-name="路径 1220" d="M614.291,10.14A418.855,418.855,0,0,1,687.4,55.449c-2.6.641-7.857,1.964-10.462,2.6C668.1,83.462,659.813,109,650.846,134.322c16.911-4.484,34.334-7.217,50.945-12.811,7.217-12.726,10.164-27.288,15.373-40.867,65.763,60.725,111.755,142.5,128.794,230.386q-193,49.771-386.041,99.67c-31.643-17.765-71.187-3.8-92.368,23.487-115.641,30.4-231.539,59.913-347.266,89.848C8.242,486.926,2.135,448.151,0,409.291V378.544c1.665-26.6,4.484-53.166,10.761-79.087,11.872,47.785,23.06,95.7,34.889,143.441,30.063-7.132,60.084-14.647,90.19-21.608-17.423-69.906-33.992-140.025-51.031-209.974q-24.661,5.829-49.237,11.872a422.929,422.929,0,0,1,48.81-84c1.879-.47,5.551-1.452,7.388-1.922,12.213-2.349,24.426-4.7,36.469-7.772C290.171,89.355,452.53,50.922,614.291,10.14ZM592.9,78.295c-.811,4.014-1.58,8.028-2.391,12.042-28.184,6.534-56.283,13.409-84.34,20.37,1.836,7.986,3.715,16.014,5.509,24.042,42.148-9.95,84.169-20.412,126.317-30.49a368.273,368.273,0,0,0,.641-36.981C623.344,70.779,608.142,74.494,592.9,78.295ZM411.364,122.28a341.7,341.7,0,0,1,9.1,37.451c-22.975,5.338-45.864,10.975-68.8,16.441,2.135,8.712,4.228,17.423,6.363,26.135,23.316-4.612,46.077-11.4,69.393-16.014,10.548,45.266,22.078,90.233,32.455,135.541-14.22,3.374-28.441,6.918-42.618,10.462,7.046,7.174,13.836,14.562,20.284,22.291,25.2-5.3,50.134-11.743,75.116-17.893-12.9-53.764-25.75-107.57-39.074-161.249,4.783-1.58,9.608-3.117,14.391-4.655-2.05-8.541-4.057-17.081-6.107-25.622l-14.519,3.075q-4.868-18.768-9.267-37.665C442.495,114.422,426.737,117.582,411.364,122.28ZM607.074,120.1c1.964,16.612,4.142,33.223,5.722,49.878q17.936-4.8,36.084-8.712c-1.708-16.4-4.1-32.754-5.808-49.152C630.988,114.294,619.031,117.2,607.074,120.1Zm86.517,11.018c-8.2,25.878-17.039,51.586-24.9,77.592,17-4.356,34.163-7.943,51.031-12.726,8.5-25.793,17.423-51.458,25.579-77.379C728.054,122.707,710.844,126.977,693.592,131.119Zm-136.4,1.2c5.893,15.63,11.743,31.259,17.935,46.8,12-2.861,24-5.893,35.786-9.608-6.406-15.074-12.085-30.362-18.106-45.565C580.854,126.379,568.983,129.283,557.2,132.315Zm-43.3,10.462c5.637,15.373,11.957,30.49,17.38,45.949a327.381,327.381,0,0,0,36.17-8.028c-6.064-15.587-11.829-31.259-18.021-46.8C537.638,137.055,525.767,140,513.9,142.777ZM250.243,171.09c16.313,70.077,33.65,139.94,50.6,209.888,29.978-7,59.828-14.69,89.806-21.565-16.612-69.949-33.864-139.726-50.518-209.632C309.985,156.058,280.221,164.129,250.243,171.09Zm-93.734,12.6c3.331,12.768,6.576,25.579,8.284,38.689-22.975,4.27-45.65,10.206-68.283,16.057q3.2,12.811,6.149,25.75c23.231-4.655,46.077-10.719,69.052-16.355,11.7,45.266,22.291,90.788,33.1,136.31-14.391,2.776-28.611,6.448-42.789,10.249,7.132,7.26,14.178,14.647,21.01,22.206,24.9-5.722,49.707-11.786,74.432-18.021-12.6-54.105-26.348-107.912-38.86-162.017,4.826-1.11,9.651-2.263,14.477-3.416q-3.267-13-6.534-26.092c-4.954.854-9.865,1.665-14.818,2.52-2.861-12.427-5.893-24.853-8.925-37.238C187.383,176.257,171.925,179.844,156.509,183.687Zm412.09,2.349,2.562,13.494c-14.647,3.843-29.423,7.26-44.155,10.761q2.754,12.235,5.594,24.426c14.946-3.459,29.85-7.089,44.753-10.719,7.943,30.277,13.879,61.066,22.932,91,14.391-4.142,29.167-6.918,43.43-11.615-7.9-29.893-14.989-59.956-22.035-90.062,14.348-3.63,28.74-7.174,43.259-10.121a154.424,154.424,0,0,0-5.21-24.9q-22.355,5.06-44.5,10.932c-.513-3.288-1.495-9.779-1.964-13.067C597.978,177.325,583.374,182.364,568.6,186.036Zm143.57,18.79c-8.754,25.451-17.893,50.732-26.22,76.269-9.608-22.249-16.355-45.607-24.469-68.411a325.422,325.422,0,0,0-33.779,8.455c9.48,24.982,17.807,50.433,26.391,75.713,10.548-2.648,21.437-6.576,32.327-3.246,15.886-3.544,31.729-7.516,47.529-11.4,10.249-29.722,19.815-59.614,30.021-89.336C746.544,196.2,729.506,201.11,712.168,204.826Zm-348.077,11.7c16.014,33.437,30.789,67.386,46.291,101.037,14.69-2.733,29.124-6.576,43.6-10.078-14.562-34.291-30.917-67.728-45.992-101.763C393.3,209.011,378.61,212.512,364.091,216.526Zm176.2,25.75c4.313,26.391,7.986,52.867,11.872,79.343,11.146-2.648,22.206-5.338,33.352-7.986-3.245-26.775-7.6-53.379-11.146-80.112C562.919,236.085,551.517,238.818,540.286,242.277ZM109.15,277.934c15.8,34.035,30.149,68.753,47.187,102.19,14.092-3.971,28.312-7.345,42.575-10.548-14.946-34.376-30.7-68.454-46.675-102.361C138.018,271.272,123.584,274.689,109.15,277.934Z" transform="translate(0 -10.14)" fill="#4784ff"/>
        </g>
        <path id="路径_1221" data-name="路径 1221" d="M69.34,54.176c2.818-.854,8.413-2.562,11.231-3.416C85.7,72.8,91.418,94.659,96.243,116.78c-2.648.683-7.986,2.092-10.633,2.818C79.888,97.862,75.148,75.87,69.34,54.176Z" transform="translate(226.767 122.702)" fill="#4784ff"/>
        <path id="路径_1222" data-name="路径 1222" d="M9.61,67.719c2.818-.6,8.413-1.751,11.188-2.349,4.569,22.163,12.042,43.728,14.946,66.191-2.52.512-7.6,1.537-10.121,2.092C20.243,111.661,15.033,89.668,9.61,67.719Z" transform="translate(31.428 170.482)" fill="#4784ff"/>
        <path id="路径_1223" data-name="路径 1223" d="M74.61,74.748c2.648-.641,7.943-2.007,10.59-2.648,5.808,22.846,11.274,45.821,16.7,68.8-2.947.384-8.882,1.153-11.872,1.537C85.841,119.672,79.179,97.466,74.61,74.748Z" transform="translate(244.002 192.492)" fill="#4784ff"/>
        <path id="路径_1224" data-name="路径 1224" d="M14.79,89.057c2.733-.6,8.2-1.836,10.932-2.477,4.228,23.145,14.22,46.248,14.733,69.436-2.135.384-6.363,1.153-8.455,1.537C24.868,135.134,20.555,111.861,14.79,89.057Z" transform="translate(48.369 239.846)" fill="#4784ff"/>
      </g>
      <g id="组_296" data-name="组 296" transform="translate(10.761 88.61)">
        <path id="路径_1225" data-name="路径 1225" d="M178.5,23.355c2.6-.641,7.857-1.964,10.462-2.6q15.373,11.978,29.764,25.2c-5.21,13.58-8.156,28.142-15.373,40.867-16.612,5.594-34.035,8.327-50.945,12.811C161.378,74.3,169.662,48.764,178.5,23.355Z" transform="translate(487.674 -20.75)" fill="#fff"/>
        <path id="路径_1226" data-name="路径 1226" d="M205.261,34.538c15.245-3.8,30.448-7.516,45.736-11.018a368.282,368.282,0,0,1-.641,36.981c-42.148,10.078-84.169,20.54-126.317,30.49-1.794-8.028-3.673-16.057-5.509-24.042,28.056-6.961,56.155-13.836,84.34-20.37C203.681,42.566,204.45,38.552,205.261,34.538Z" transform="translate(376.874 -11.691)" fill="#fff"/>
        <path id="路径_1227" data-name="路径 1227" d="M142.05,45.361c15.373-4.7,31.131-7.857,46.718-11.7q4.42,18.9,9.267,37.665l14.519-3.075c2.05,8.541,4.057,17.081,6.107,25.622-4.783,1.537-9.608,3.075-14.391,4.655,13.324,53.678,26.177,107.485,39.074,161.249-24.982,6.149-49.92,12.6-75.116,17.893-6.448-7.729-13.238-15.117-20.284-22.291,14.178-3.544,28.4-7.089,42.618-10.462-10.377-45.309-21.907-90.275-32.455-135.541-23.316,4.612-46.077,11.4-69.393,16.014-2.135-8.712-4.228-17.423-6.363-26.135,22.932-5.466,45.821-11.1,68.8-16.441A341.706,341.706,0,0,0,142.05,45.361Z" transform="translate(258.553 21.47)" fill="#fff"/>
        <path id="路径_1228" data-name="路径 1228" d="M142.16,42.006c11.957-2.9,23.914-5.808,36-7.986,1.708,16.4,4.1,32.754,5.808,49.152q-18.128,3.907-36.084,8.712C146.3,75.229,144.124,58.617,142.16,42.006Z" transform="translate(454.153 22.648)" fill="#fff"/>
        <path id="路径_1229" data-name="路径 1229" d="M181.486,48.052C198.738,43.91,215.948,39.64,233.2,35.54c-8.156,25.921-17.081,51.586-25.579,77.379-16.868,4.783-34.035,8.37-51.031,12.726C164.447,99.638,173.287,73.931,181.486,48.052Z" transform="translate(501.344 27.619)" fill="#fff"/>
        <path id="路径_1230" data-name="路径 1230" d="M130.48,45.16c11.786-3.032,23.658-5.936,35.615-8.37,6.021,15.2,11.7,30.49,18.106,45.565-11.786,3.715-23.786,6.747-35.786,9.608C142.224,76.419,136.373,60.789,130.48,45.16Z" transform="translate(415.955 31.707)" fill="#fff"/>
        <path id="路径_1231" data-name="路径 1231" d="M120.34,48c11.872-2.776,23.743-5.722,35.529-8.882,6.192,15.544,11.957,31.216,18.021,46.8a327.375,327.375,0,0,1-36.17,8.028C132.3,78.493,125.977,63.376,120.34,48Z" transform="translate(382.794 39.327)" fill="#fff"/>
        <g id="组_293" data-name="组 293" transform="translate(239.482 94.332)">
          <path id="路径_1232" data-name="路径 1232" d="M58.6,64.149c29.978-6.961,59.742-15.032,89.891-21.309,16.654,69.906,33.907,139.683,50.518,209.632-29.978,6.875-59.828,14.562-89.806,21.565C92.25,204.089,74.913,134.226,58.6,64.149Zm45.864,15.928c5.808,21.693,10.548,43.686,16.27,65.422,2.648-.726,7.986-2.135,10.633-2.818-4.826-22.12-10.548-43.985-15.672-66.02C112.876,77.515,107.282,79.223,104.464,80.078Zm22.5,90.361c4.569,22.718,11.231,44.924,15.416,67.685,2.989-.384,8.925-1.153,11.872-1.537-5.423-22.975-10.889-45.949-16.7-68.8C134.911,168.431,129.616,169.8,126.968,170.438Z" transform="translate(-58.6 -42.84)" fill="#fff"/>
        </g>
        <path id="路径_1233" data-name="路径 1233" d="M82.6,59.479c15.416-3.843,30.875-7.43,46.291-11.359,3.032,12.384,6.064,24.811,8.925,37.238,4.954-.854,9.865-1.665,14.818-2.52q3.267,13.067,6.534,26.092c-4.826,1.153-9.651,2.306-14.477,3.416,12.512,54.105,26.263,107.912,38.86,162.017-24.725,6.235-49.536,12.3-74.432,18.021-6.833-7.559-13.879-14.946-21.01-22.206,14.178-3.8,28.4-7.473,42.789-10.249-10.8-45.522-21.395-91.044-33.1-136.31-22.975,5.637-45.821,11.7-69.052,16.355Q25.8,127.036,22.6,114.225c22.633-5.85,45.309-11.786,68.283-16.057C89.175,85.059,85.929,72.248,82.6,59.479Z" transform="translate(63.149 68.76)" fill="#fff"/>
        <path id="路径_1234" data-name="路径 1234" d="M165,58.885c14.776-3.673,29.38-8.712,44.668-9.865.47,3.288,1.452,9.779,1.964,13.067q22.163-5.829,44.5-10.932a154.427,154.427,0,0,1,5.21,24.9c-14.519,2.947-28.91,6.491-43.259,10.121,7.046,30.106,14.135,60.169,22.035,90.062-14.263,4.7-29.038,7.473-43.43,11.615-9.053-29.935-14.989-60.725-22.932-91-14.9,3.63-29.807,7.26-44.753,10.719Q126.186,95.4,123.41,83.14c14.733-3.5,29.508-6.918,44.155-10.761Z" transform="translate(392.834 71.703)" fill="#fff"/>
        <path id="路径_1235" data-name="路径 1235" d="M231.458,64.887c17.338-3.715,34.376-8.626,51.8-11.957-10.206,29.722-19.772,59.614-30.021,89.336-15.8,3.886-31.643,7.857-47.529,11.4-10.889-3.331-21.779.6-32.327,3.245C164.8,131.633,156.47,106.181,146.99,81.2a325.421,325.421,0,0,1,33.779-8.455c8.114,22.8,14.861,46.163,24.469,68.411C213.565,115.619,222.7,90.338,231.458,64.887Z" transform="translate(469.949 84.49)" fill="#fff"/>
        <path id="路径_1236" data-name="路径 1236" d="M85.26,66.744c14.519-4.014,29.209-7.516,43.9-10.8,15.074,34.035,31.43,67.472,45.992,101.763-14.477,3.5-28.91,7.345-43.6,10.078C116.049,134.13,101.274,100.181,85.26,66.744Z" transform="translate(268.07 94.334)" fill="#fff"/>
        <g id="组_294" data-name="组 294" transform="translate(0 155.868)">
          <path id="路径_1237" data-name="路径 1237" d="M27.331,69.122Q51.928,63.1,76.568,57.25C93.607,127.2,110.176,197.318,127.6,267.224c-30.106,6.961-60.127,14.477-90.19,21.608C25.58,241.089,14.392,193.176,2.52,145.39A395.016,395.016,0,0,1,27.331,69.122ZM32.8,94.274c5.423,21.95,10.633,43.942,16.014,65.934,2.52-.555,7.6-1.58,10.121-2.092-2.9-22.462-10.377-44.027-14.946-66.191C41.209,92.523,35.615,93.676,32.8,94.274Zm22.12,90.7c5.765,22.8,10.078,46.077,17.21,68.5,2.092-.384,6.32-1.153,8.455-1.537-.512-23.188-10.505-46.291-14.733-69.436C63.116,183.14,57.65,184.379,54.917,184.977Z" transform="translate(-2.52 -57.25)" fill="#fff"/>
        </g>
        <path id="路径_1238" data-name="路径 1238" d="M126.52,71.2c11.231-3.459,22.633-6.192,34.077-8.754,3.544,26.732,7.9,53.337,11.146,80.112-11.146,2.648-22.206,5.338-33.352,7.986C134.506,124.071,130.833,97.6,126.52,71.2Z" transform="translate(403.005 115.624)" fill="#fff"/>
        <path id="路径_1239" data-name="路径 1239" d="M25.56,81.059C39.994,77.813,54.428,74.4,68.648,70.34c15.971,33.907,31.729,67.984,46.675,102.361-14.263,3.2-28.483,6.576-42.576,10.548C55.709,149.811,41.36,115.093,25.56,81.059Z" transform="translate(72.829 141.427)" fill="#fff"/>
        <g id="组_295" data-name="组 295" transform="translate(284.847 513.024)">
          <path id="路径_1240" data-name="路径 1240" d="M174.73,144.7c38.732-10.932,78.874,3.16,112.268,22.676,42.02,53.123,30.917,137.506-21.309,179.91C213.676,393.666,125.151,388.8,79.928,335.375c-5.85-24.512-13.537-49.536-9.651-75.03C75.615,204.66,120.625,156.789,174.73,144.7Zm-4.057,30.7c-.256,15.672,2.861,31.174,3.971,46.8-11.274,5.125-22.291,12.854-26.305,25.2-8.669,20.925,4.783,46.974,26.6,52.44,22.846,7.473,48.981-10.334,50.988-34.12,2.477-17.594-8.882-33.693-23.829-41.849-2.9-17-2.306-34.547-6.7-51.244C190.1,162.383,173.748,164.39,170.673,175.408Z" transform="translate(-69.223 -140.886)" fill="#fff"/>
        </g>
      </g>
      <g id="组_298" data-name="组 298" transform="translate(271.309 352.988)">
        <g id="组_297" data-name="组 297" transform="translate(268.857)">
          <path id="路径_1241" data-name="路径 1241" d="M327.319,139.456c32.113-24.512,67.13-46.461,106.631-56.8a472.2,472.2,0,0,1,6.448,66.7v18.491c-2.562,94.076-36.768,187.042-96.852,259.6A429.092,429.092,0,0,1,144.078,563.374l-1.495-2.135c-3.587-5.509-7.174-11.06-10.462-16.74-14.092-59.529.043-121.492,22.846-176.921,2.349-5.594,4.825-11.1,7.473-16.526C201.343,269.787,257.669,196.764,327.319,139.456Zm-9.694,50.775c-6.448,10.163-12.982,20.284-19.387,30.448-3.5-2.092-7-4.142-10.462-6.192-1.836,2.861-5.466,8.583-7.3,11.445,2.52,1.665,7.6,4.911,10.121,6.534q-9.608,15.373-19.473,30.619c2.52,1.495,7.559,4.441,10.078,5.936q9.672-14.925,19.046-30.063c2.391,1.495,7.217,4.441,9.608,5.936-5.551,8.626-11.231,17.252-17.124,25.708,9.694,6.961,19.473,13.964,30.533,18.661a182.467,182.467,0,0,1,14.178-21.437,218.813,218.813,0,0,1-1.281,38.86c3.63.128,10.889.3,14.519.384a132.325,132.325,0,0,0-1.495-36.939c6.107,3.843,12.213,7.6,18.363,11.4,1.964-2.733,5.808-8.156,7.772-10.889q-8.583-5.765-17.167-11.487c10.163-5,20.327-9.993,30.661-14.69-1.623-4.527-3.245-9.1-4.826-13.622-10.121,5.594-20.455,10.761-30.106,17.167.342,2.477,1.025,7.473,1.367,9.95-2.007-1.452-5.979-4.313-7.986-5.765,4.441-9.48,10.761-17.936,16.484-26.6q-14.861-9.352-29.508-19.046-8.519,13.259-17.124,26.519c-2.263-1.409-6.747-4.185-9.01-5.594,6.235-10.377,12.726-20.583,19.558-30.576C324.287,194.672,320.956,192.451,317.625,190.23Zm81.905,49.237c-11.615,19.686-23.957,38.9-36.3,58.12-6.406,9.48-17,20.113-29.551,16.227-14.348-7.729-27.33-17.679-41.337-25.964-4.655,7.345-9.309,14.733-14.05,22.035,2.69,1.836,8.071,5.552,10.761,7.388,2.648-3.374,5.338-6.7,7.986-10.078,9.737,6.576,20.156,12.128,29.423,19.345,3.8,5.594,3.886,12.939,5.808,19.345,3.672.342,11.018,1.068,14.647,1.452-1.751-6.747-3.416-13.537-4.954-20.327,8.156-2.178,16.74-4.74,22.121-11.786,16.783-20.2,29.337-43.43,44.2-64.995C405.338,246.642,402.435,243.055,399.531,239.468Zm-147.5,34.376c-.427,3.416-1.238,10.249-1.665,13.665q14.669,0,29.38-.043c0-3.886.043-11.743.043-15.672A208.26,208.26,0,0,1,252.032,273.844Zm-20.839,65.593c-5.167-3.416-10.334-6.875-15.459-10.334-2.989,4.057-5.978,8.156-8.968,12.256,5.509,3.544,10.975,7.217,16.355,11.1-3.715,5.594-7.3,11.231-10.889,16.911,2.776,1.623,8.37,4.868,11.188,6.491,3.715-5.551,7.345-11.146,11.018-16.74q12.106,8.135,24.213,16.484-7.11,11.466-14.348,22.889c3.843,2.6,7.729,5.21,11.573,7.857,3.715-6.192,7.26-12.469,11.658-18.234,6.107-3.288,8.028,3.544,10.292,7.772,5.551,10.719,4.228,23.188,4.569,34.846,3.971-.3,11.957-.854,15.928-1.11.128-17.295-3.544-34.462-12.9-49.152,17.38,2.947,34.035-3.8,49.323-11.274-1.879-5.253-3.715-10.548-5.551-15.843-14.22,9.822-31,15.971-48.469,14.391,6.662-11.359,13.879-22.334,21.1-33.309-6.747-3.374-15.117-10.292-18.149,1.2-11.658-7.815-23.53-15.331-35.4-22.8C242.595,321.672,236.873,330.554,231.193,339.437Zm-51.372,45.949c34.59,21.693,68.8,44.027,103.428,65.721,2.477-3.971,5-7.986,7.516-11.957-23.316-15.459-47.4-29.722-70.461-45.479,3.288-.726,9.907-2.178,13.2-2.9-1.964-4.826-3.929-9.651-5.893-14.434-7.345,2.861-14.647,5.68-21.992,8.5-6.064-4.057-12.171-8.071-18.234-12.085C184.817,376.93,182.3,381.158,179.821,385.386Zm14.647,24.768c9.651,7.644,19.174,15.416,28.184,23.871l6.833-7.516c-9.352-7.516-18.021-16.014-28.483-22.078C199.379,405.884,196.091,408.745,194.468,410.154Z" transform="translate(-126.492 -82.66)" fill="#e1eafd"/>
        </g>
        <path id="路径_1242" data-name="路径 1242" d="M181.979,115.83c4.014,1.964,8.028,3.971,12,5.936-3.331,5.253-6.7,10.548-10.035,15.8-3.587-2.434-7.089-4.868-10.633-7.3C176.214,125.481,179.075,120.655,181.979,115.83Z" transform="translate(295.477 25.818)" fill="#e1eafd"/>
        <path id="路径_1243" data-name="路径 1243" d="M178.569,122.03c3.715,1.964,7.43,3.929,11.1,5.936-2.946,5.381-6.021,10.676-9.1,16.014-3.758-2.135-7.516-4.313-11.316-6.448C172.377,132.364,175.452,127.2,178.569,122.03Z" transform="translate(282.232 46.094)" fill="#e1eafd"/>
        <path id="路径_1244" data-name="路径 1244" d="M90,187.847c35.273-49.024,105.563-67.6,160.608-42.832,21.822,9.608,41.593,24.768,55,44.625-33.394-19.516-73.536-33.608-112.268-22.676C139.234,179.05,94.224,226.921,88.886,282.607c-3.886,25.494,3.8,50.518,9.651,75.03C55.193,312.883,51.819,236.871,90,187.847Z" transform="translate(-63.533 85.498)" fill="#e1eafd"/>
        <path id="路径_1245" data-name="路径 1245" d="M153.7,155.763c3.032-4.911,6.064-9.822,9.139-14.733l24.854,16.014c-3.331,5.124-6.619,10.334-9.907,15.5C169.8,166.866,161.728,161.314,153.7,155.763Z" transform="translate(231.345 108.231)" fill="#e1eafd"/>
      </g>
      <g id="组_300" data-name="组 300" transform="translate(123.466 435.939)">
        <g id="组_299" data-name="组 299">
          <path id="路径_1246" data-name="路径 1246" d="M273,133.494c21.181-27.288,60.725-41.252,92.368-23.487a152.713,152.713,0,0,1,30.661,28.227c3.2,7.6,5.893,15.416,8.5,23.273h-54.96c-.085,9.694-.512,19.387.342,29.038.6,5.082,1.238,10.121,1.922,15.16a190.636,190.636,0,0,1,122.26,98.346c-22.8,55.429-36.939,117.392-22.846,176.921,1.409,5.722,2.989,11.445,4.911,17.039-48.212,15.074-98.859,19.516-149.164,18.533l-1.153.043C253.31,511.08,201.041,499.379,153,476.917c-6.747-21.181-17.765-41.038-21.309-63.2-3.459-19.046-2.349-38.476-1.623-57.693-2.562-1.238-7.729-3.8-10.334-5.039-11.018-5.039-22.889-7.772-34.633-10.633-.256,2.6-.811,7.858-1.068,10.505-8.284,19.3-13.452,39.714-20.711,59.4C49.4,398.385,34.966,385.318,30.141,366.912a165.636,165.636,0,0,1-.214-38.476c6.747-23.7,26.6-41.679,48.725-51.287,9.352-.726,18.7-1.452,28.056-2.092-2.434,17.893-12.555,33.608-14.348,51.671l11.957,4.783c4.826,1.623,9.608,3.288,14.477,4.868,5.082.854,10.249,1.537,15.373,2.263C148.6,281.59,191.39,232.567,247.033,212.752c27.672-11.146,57.821-12.256,87.2-10.42.726-5.039,1.409-10.121,2.05-15.16.512-8.541.555-17.124.6-25.665-12.042-.043-24.085-.085-36.085.3-13.238-.171-26.519-.427-39.757-.47C264.327,151.771,267.957,142.334,273,133.494ZM203.219,292.48c-38.177,49.024-34.8,125.036,8.541,169.79,45.223,53.422,133.748,58.29,185.761,11.914,52.227-42.4,63.329-126.787,21.309-179.91-13.409-19.857-33.181-35.017-55-44.625C308.782,224.88,238.492,243.456,203.219,292.48Z" transform="translate(-28.912 -102.085)" fill="#f6a526"/>
        </g>
      </g>
      <g id="组_301" data-name="组 301" transform="translate(208.836 520.569)">
        <path id="路径_1247" data-name="路径 1247" d="M218.3,125.435c15.544-6.32,32.839-2.007,49.152-3.075-.641,5.039-1.324,10.121-2.05,15.16-29.38-1.836-59.529-.726-87.2,10.42-55.643,19.814-98.432,68.838-112.866,125.89-5.124-.726-10.292-1.409-15.373-2.263,15.074-29.508,25.537-62.988,51.159-85.535C131.695,153.32,173.245,129.705,218.3,125.435Z" transform="translate(-45.449 -121.903)" fill="#d96802"/>
        <path id="路径_1248" data-name="路径 1248" d="M104.08,122.8c14.263,8.242,31.6,9.48,45.778,18.277,36.255,16.4,62.732,47.358,85.877,78.7-2.648,5.423-5.124,10.932-7.473,16.526A190.636,190.636,0,0,0,106,137.96C105.318,132.921,104.678,127.882,104.08,122.8Z" transform="translate(131.543 -118.969)" fill="#d96802"/>
        <path id="路径_1249" data-name="路径 1249" d="M54.354,160.37c2.6,1.238,7.772,3.8,10.334,5.039-.726,19.217-1.836,38.647,1.623,57.693,3.544,22.163,14.562,42.02,21.309,63.2C76.3,282.332,67.037,274.517,62.34,263.328l-1.2-7.858c-1.836-5.68-3.374-11.444-4.911-17.167-2.9-8.242-2.861-17-3.459-25.579C44.276,196.241,52.091,177.409,54.354,160.37Z" transform="translate(-48.904 3.898)" fill="#d96802"/>
        <path id="路径_1250" data-name="路径 1250" d="M95.4,174.537c5.765-7.6,14.348-8.968,22.163-3.587-.085,5.85-.171,11.744-.214,17.637-7-.085-14.049-.3-21.053-.726Z" transform="translate(103.156 27.865)" fill="#d96802"/>
      </g>
      <g id="组_303" data-name="组 303" transform="translate(372.062 626.692)">
        <g id="组_302" data-name="组 302">
          <path id="路径_1251" data-name="路径 1251" d="M112.123,156.217c3.075-11.018,19.43-13.025,24.725-2.776,4.4,16.7,3.8,34.248,6.7,51.244,14.946,8.156,26.305,24.256,23.829,41.849-2.007,23.786-28.142,41.593-50.988,34.12-21.822-5.466-35.273-31.515-26.6-52.44,4.014-12.341,15.032-20.071,26.305-25.2C114.984,187.391,111.867,171.889,112.123,156.217Zm10.334,86.816.9,13.324c7,.427,14.049.641,21.053.726.043-5.893.128-11.786.214-17.637C136.805,234.066,128.222,235.432,122.457,243.034Z" transform="translate(-87.127 -146.754)" fill="#2c3f4f"/>
        </g>
      </g>
    </g>
  </g>
</svg>
