<svg xmlns="http://www.w3.org/2000/svg" width="728" height="728" viewBox="0 0 728 728">
  <g id="DG梦幻厅" transform="translate(-2301 857)">
    <circle id="椭圆_7" data-name="椭圆 7" cx="364" cy="364" r="364" transform="translate(2301 -857)" fill="#b2995d"/>
    <g id="组_400" data-name="组 400" transform="translate(2276.294 -728.303)">
      <g id="组_399" data-name="组 399" transform="translate(44.12)">
        <path id="路径_1401" data-name="路径 1401" d="M390.787,0h0c14.427,23.521,40.2,37.528,66.081,45.486A267.623,267.623,0,0,0,536.418,55.77c.227,36.677-.357,73.723-7.773,109.791,7.968-2.824,16.472-3.4,24.894-3.257,19.977-.674,40,.209,59.979-.642,15.676-.241,31.369.321,47.046-.562,24.991-.578,51.314.3,74.487-10.429-1.509,5.054-3.246,10.2-6.637,14.392-11.116,14.456-28.854,22.751-46.607,25.8-41.69.176-83.38,0-125.071.064-9.461.257-19.474,1.251-27.555,6.594a37.678,37.678,0,0,0-16.812,22.959c-4.219,16.927-2.661,36.469,8.958,50.315,8.39,9.963,21.957,13.846,34.68,13.461-.049-13.958,0-27.933-.049-41.892q15.384.024,30.769,0-.049,35.185-.016,70.37-20.715-.024-41.414.048c-10.987.465-21.1-4.733-30.314-10.044-14.459-8.76-24.083-23.344-29.827-38.827-4.836,5.632-9.4,11.488-14.427,16.943a145.173,145.173,0,0,1-56.945,38.57c-9.218,3.321-18.922,6.8-28.886,5.872-36.838-7.653-69.879-30.452-91.008-61.113-5.793,15.772-15.855,30.516-30.687,39.164-8.552,4.717-17.754,9.53-27.8,9.4-14.313,0-28.627-.064-42.94-.016q.073-35.185-.016-70.37,15.384.024,30.769,0c-.049,13.959-.016,27.933-.049,41.908,8.1-.128,16.455-.931,23.661-4.893,12.9-6.305,19.977-20.392,21.713-34,1.233-14.985-.536-32.1-12.236-42.983-8.812-8.872-21.811-11.488-33.933-11.472-40.538.016-81.076-.064-121.614.064-8.487.032-16.488-3.305-24.212-6.4C61.89,178.172,47.788,166.78,44.12,150.656c13.486,6.723,28.691,8.2,43.492,9.659,43.281,1.54,86.61,1.572,129.923,1.8,11.425.3,23.109-.273,34.063,3.562-5.777-20.473-6.816-41.827-7.79-62.942-.325-15.8.373-31.623,1.444-47.395,26.858.834,53.715-3.273,79.5-10.541C350.3,36.661,376.506,23.473,390.787,0ZM333.663,67.964a309.073,309.073,0,0,1-65.546,14.183c-.276,6.867-.454,13.734-.211,20.6,2.515,49.1,15.887,98.079,41.982,140.179,25.1-13.926,53.5-20.248,79.875-31.3,8.13-3.466,16.78-5.985,24.261-10.814,8.211-5.295,14.2-14.392,14.346-24.259-.032-7.509-.633-15.675-5.566-21.788-5.891-7.043-15.839-10-24.8-8.423-4.447,1.973-2.272,6.771.99,8.68-3.6,1.235-7.5,2.182-10.483,4.653-3.018,4.155-1.055,9.787,1.477,13.7-6.2-.032-12.415-.353-18.581.16-.26.722-.779,2.2-1.039,2.936-8.536.449-17.981-.882-25.576,3.835-5.177,3.113-5.68,10.028-4.236,15.29,3.051,5.567,9.964,6.337,15.563,7.6-15.871,5.535-35,1.107-45.893-11.825-1.9.5-3.814.947-5.729,1.332-1.639-11.183.195-23.826,7.806-32.634,2.418.128,2.207,3.626,3.505,5.1a7.187,7.187,0,0,0,8.7-3.337c4.252-7.2,8.293-14.584,11.976-22.093-2.759-.1-5.5-.144-8.244-.209.276-.738.811-2.214,1.071-2.968a60.516,60.516,0,0,0,9.493-3.626,113.26,113.26,0,0,0-15.125-.417c-.016-.915-.065-2.76-.081-3.69,2.256.16,4.528.337,6.8.513l-.114-1.861c4.625.112,9.283.064,13.924.112,2.564-4.492-.763-8.953-1.477-13.477-1.3-7.38,2.223-14.793,7.173-20.136,10.354-10.124,25.43-13.862,39.6-14.183,9.445.176,19.084-.85,28.334,1.524-8.065.738-16.261-.626-24.229,1.155-8.569,1.733-17.77,2.23-25.3,7.124-5.842,3.466-9.2,9.931-9.834,16.51,3.229-4.155,7.043-7.91,11.911-10.156.195,2.583.357,5.15.519,7.733A64.879,64.879,0,0,1,380.53,94.5c.292,2.9-.065,6.145,1.688,8.7,1.834-4.316,3.035-9.225,6.994-12.21a34.951,34.951,0,0,1,21.5-7.3c18.727-.465,37.146,3.979,54.851,9.627,7.384,2.583,15.255-.578,21.243-4.91-.5,2.535-1.039,5.054-1.574,7.573-7.027,4.284-15.514,4.236-23.385,3-16.407-5.23-33.884-8.295-51.1-6.113a20.912,20.912,0,0,0-17.1,12.1,111.2,111.2,0,0,1,28.172-1.444c18.013,4.813,37.195,13.413,46.218,30.6a35.6,35.6,0,0,0-11.133-2.728c6.1,14.135,21.47,20.3,35.6,23.5-6.946,6.514-17.007,3.016-25.137,1.107a64.7,64.7,0,0,1,4.641,17.007c2.5,13.509-3.035,26.97-9.769,38.49-14.411,22.638-40.165,36.453-66.292,41.218,9.4,1.492,19.88,2.631,26.712,10-6.67-.209-13.323-.626-19.993-.465-20.042.4-39.954,7.348-55.4,20.039.7,1.877,2.548,2.952,4.057,4.139,9.9,7.2,21.648,11.472,33.56,14.071,4.625,1.107,9.364-.08,13.826-1.348a116.588,116.588,0,0,0,32.927-15.274c25.559-17.52,43.443-43.993,55.322-72.039,12.934-30.019,19.571-62.284,23.531-94.549,1.379-12.322,2.759-24.66,2.759-37.062a154.729,154.729,0,0,1-37.666-3.4c-30.817-6.658-60.369-20.264-84.4-40.592C374.558,50.716,354.549,60.92,333.663,67.964Z" transform="translate(-44.12)" fill="#fff"/>
      </g>
      <path id="路径_1402" data-name="路径 1402" d="M59.03,119.97c11.01,5.85,23.4,9.881,35.995,9.457,37.908-.047,75.8.141,113.709.063q-.047,14.821,0,29.658c-32.152-.157-64.3.2-96.441,0C98.6,157.533,85.05,152.53,74.134,144,66.621,137.928,60.943,129.522,59.03,119.97Z" transform="translate(8.475 73.122)" fill="#fff"/>
      <path id="路径_1403" data-name="路径 1403" d="M479.439,129.359a79.615,79.615,0,0,0,29.784-9.379c-2.792,14.257-13.99,25.314-26.773,31.352-10.21,4.737-21.346,8.391-32.748,7.936q-45.076-.212-90.167-.125c0-9.9.016-19.777-.016-29.658Q419.464,129.508,479.439,129.359Z" transform="translate(202.443 73.129)" fill="#fff"/>
      <path id="路径_1404" data-name="路径 1404" d="M73.97,145.96a59.022,59.022,0,0,0,26.788,7.873c19.558.016,39.131.2,58.705.125q-.047,14.8-.016,29.611c-11.763-.031-23.542-.063-35.3.094-8.234.361-15.778-3.529-23.181-6.572C88.242,171.211,75.4,160.907,73.97,145.96Z" transform="translate(16.967 88.93)" fill="#fff"/>
      <path id="路径_1405" data-name="路径 1405" d="M439.551,153.859a58.939,58.939,0,0,0,31.462-7.889c-1.27,13.692-12.422,23.683-23.965,29.6-6.87,3.341-14.006,6.477-21.518,7.889-13.331.329-26.678-.063-40.01.094q.071-14.8,0-29.6C403.541,154.047,421.546,153.843,439.551,153.859Z" transform="translate(217.222 88.934)" fill="#fff"/>
      <path id="路径_1406" data-name="路径 1406" d="M88.27,170.95c9.677,6.1,21.016,9.787,32.513,9.583q15.268.047,30.552.016-.071,14-.016,28.012c-10.728-.5-21.973,1.521-32.231-2.556C103.97,200.232,92.348,186.508,88.27,170.95Z" transform="translate(25.095 104.476)" fill="#fff"/>
      <path id="路径_1407" data-name="路径 1407" d="M436.336,177.061c4.329-1.49,8.265-3.89,12.249-6.1a52.749,52.749,0,0,1-27.855,33.83c-10.963,5.442-23.448,3.356-35.195,3.748q.047-14-.016-28C402.443,179.743,420.04,182.958,436.336,177.061Z" transform="translate(217.222 104.482)" fill="#fff"/>
    </g>
    <g id="组_405" data-name="组 405" transform="translate(2475.787 -614.612)">
      <g id="组_401" data-name="组 401" transform="translate(39.458 226.852)">
        <path id="路径_1408" data-name="路径 1408" d="M33.5,227.963a12.365,12.365,0,0,1,3.731-1.061c15.254.96,31.794-3.383,45.633,6.464,17.913,14.14,14.925,50.684-4.232,61.609-13.624,8.3-29.035,2-43.546,3.1,2.116-1.313,5.461-1.683,5.275-5.387,1.33-13.349.243-26.882.586-40.3-.2-7.709.658-15.537-.829-23.128C37.9,228.872,35.687,228.451,33.5,227.963Zm14.839,2.643c-.886,11.733-.214,23.516-.415,35.282.257,9.41-.944,19.19,1.8,28.246,8.378,2.138,17.613,2.862,25.5-1.767,5.4-3.2,9.321-9.174,10.794-16.059,4.46-14.948-.486-33.7-12.566-41.409C65.895,229.411,56.788,230.572,48.339,230.606Z" transform="translate(-33.5 -226.749)" fill="#fff"/>
      </g>
      <path id="路径_1409" data-name="路径 1409" d="M255.427,230.958c11.994-7.77,26.133-4.531,38.957-2.165-.229,5.689-.3,11.395-.529,17.083-2.03-4.044-2.359-9.8-6.319-12.032-5.318-3.776-11.737-4.33-17.8-4.061-7.763.47-16.055,4.783-19.428,13.475a45.533,45.533,0,0,0,.572,33.915c4.26,10.4,13.5,17.855,23.4,18.258,4.174.017,9.178.722,12.566-2.752.743-8.408.243-16.882.1-25.306-2.473-1.393-4.961-2.735-7.434-4.111,6.977-.235,14.01-.571,20.972.319-1.93.873-3.86,1.712-5.8,2.484-1.129,9.565-.643,19.248-.629,28.864-7.62,5.689-17.027,5.219-25.676,4.732-9.135-1.779-18.671-6.763-23.245-16.714C236.284,266.249,239.9,240.355,255.427,230.958Z" transform="translate(-231.419 99.246)" fill="#fff"/>
      <g id="组_402" data-name="组 402" transform="translate(111.067 246.859)">
        <path id="路径_1410" data-name="路径 1410" d="M83.59,233.132c8.735-.029,17.5-.243,26.19.7,6.819.729,12.438,7.906,10.679,14.7-.7,5.175-4.646,8.921-8.12,12.452a217.516,217.516,0,0,0,15.168,18.613c2.53,3.131,6.7,3.588,10.265,4.846-5.847.6-12.967,1.6-17.3-3.388-5.061-5.79-9.478-12.095-14.31-18.07H96.885c.114,6.2-.386,12.452.3,18.628,1.444,1.944,4.26,1.887,6.276,2.9-6.09.472-12.195.129-18.3.114,1.015-.529,3.016-1.6,4.032-2.13,2.03-6.733,1.058-14.01,1.3-20.987-.272-8.621.672-17.327-.743-25.876C87.75,234.676,85.62,234.019,83.59,233.132Zm13.353,2.688c-.086,8.063-.157,16.126.057,24.189,4.117.086,8.378.829,12.438-.172,6.576-4.9,6.176-15.74.843-21.43C106.778,234.876,101.4,236.034,96.943,235.82Z" transform="translate(-83.59 -233.091)" fill="#fff"/>
      </g>
      <path id="路径_1411" data-name="路径 1411" d="M121.51,233.23c10.35-.214,20.715.272,31.051-.3-.286,3.059-.5,6.119-.729,9.178-1.287-1.758-2.216-3.874-4.06-5.118-4.2-1.015-8.563-.658-12.838-.7q-.064,9.886,0,19.786c5.518.029,11.122.186,16.526-1.158-.443,3.431-.6,6.9-.958,10.35-.672-1.7-1.3-3.417-1.873-5.147a68.488,68.488,0,0,0-13.653-1.387c.1,7.105-.572,14.282.329,21.358,3.088,3.26,8.649,1.244,12.738,1.644,3.746.214,4.417-4.232,6.462-6.476-.872,2.974.229,7.305-2.187,9.45-9.678.672-19.385-.272-29.078-.014,2.373-1.229,5.132-2.716,4.718-5.876.243-14.339.315-28.721-.143-43.06C125.7,234.931,123.583,234.131,121.51,233.23Z" transform="translate(55.644 13.698)" fill="#fff"/>
      <g id="组_403" data-name="组 403" transform="translate(217.387 234.144)">
        <path id="路径_1412" data-name="路径 1412" d="M154.889,289.982c6.862-19.142,11.866-39.248,19.228-58.132,5.232,12.687,9.135,26.1,13.739,39.128,2.43,6.7,3.946,13.978,7.363,20.106,1.644,3.15,4.975,3.529,7.577,5.026a107.8,107.8,0,0,1-15.283-.172c.086-.9.257-2.668.343-3.563-1.758-6.438-4.074-12.652-6.133-18.953q-8.449,0-16.884.017c-1.444,6.7-4.9,12.979-4.861,19.968.629.5,1.9,1.48,2.545,1.98-.014.241-.029.74-.043,1-5.218-.448-10.436-.052-15.64-.482C149.771,294.578,153.688,294.1,154.889,289.982Zm11.165-20h14.539c-2.516-7.936-4.9-15.94-7.477-23.859C170.4,253.918,168.3,261.975,166.054,269.979Z" transform="translate(-146.84 -231.85)" fill="#fff"/>
      </g>
      <path id="路径_1413" data-name="路径 1413" d="M198.672,232.182a30.234,30.234,0,0,1,3.36,5.533c6.548,15.549,12.709,31.339,19.543,46.715,4.832-11.584,9.321-23.358,14.067-34.976,2.445-5.9,4.3-12.273,7.92-17.324,2.5,19.065,3.288,38.424,5.8,57.472.543,4.878,5.2,4.827,8.206,6.085a60.261,60.261,0,0,1-15.054.138c.072-15.445-1.844-30.822-3.159-46.181-6.033,15.445-11.966,30.977-18.628,46.043l-1.3.052c-7.334-14.325-12.766-29.96-19.071-44.974-.586,14.256-2.63,28.374-2.63,42.664,1.344.569,4.046,1.689,5.39,2.258a75.551,75.551,0,0,1-15.668,0c1.2-.552,3.6-1.638,4.8-2.172C195.156,273.191,195.842,252.505,198.672,232.182Z" transform="translate(94.228 2.415)" fill="#fff"/>
      <g id="组_404" data-name="组 404" transform="translate(76.476 333.625)">
        <path id="路径_1414" data-name="路径 1414" d="M310.174,231.88c4.732,7.008,5.961,16.2,9.049,24.245,3.946,10.676,7.005,21.834,11.079,32.458,1.372,4.546,5.418,5.872,8.806,7.335A66.554,66.554,0,0,1,324.3,295.9c-.272-8.041-4.046-15.032-6.147-22.488H301.41a204.81,204.81,0,0,0-5.59,20.009c1.115.62,3.374,1.877,4.489,2.514a155.643,155.643,0,0,1-16.769.034c2.916-1.653,7.119-2.135,8.077-6.578C297.979,270.313,303.626,250.873,310.174,231.88Zm-.743,13.93q-3.6,12.01-6.919,24.158c4.861-.017,9.707,0,14.568,0C314.434,261.945,312.561,253.576,309.43,245.81Z" transform="translate(-283.54 -231.88)" fill="#fff"/>
      </g>
      <path id="路径_1415" data-name="路径 1415" d="M334.512,236.776a16.554,16.554,0,0,1,1.587-4.536c7.734,17.109,14.525,34.8,21.9,52.137,6.619-15.039,12.352-30.647,18.6-45.928,1.015-2.07,1.644-4.743,3.545-5.916,2.831,19.161,3.059,38.8,6.162,57.914.743,4.588,5.576,3.656,8.392,5.105a59.567,59.567,0,0,1-15.568.241c.229-15.436-2.2-30.751-2.816-46.169-6.748,15.143-12.094,31.165-19.1,46.118l-1.258-.138c-6.462-14.763-13.081-29.475-18.671-44.772-1.272,14.142-2.731,28.285-3.131,42.513,1.258.5,3.774,1.535,5.032,2.052-5.1,1.207-10.336.431-15.5.448,1.887-1.5,5.576-1.466,5.618-5.036C331.381,272.856,332.754,254.781,334.512,236.776Z" transform="translate(-183.08 101.899)" fill="#fff"/>
      <path id="路径_1416" data-name="路径 1416" d="M377.75,233.549c5.976-.658,12.009-.314,18.013-.529-2.059,1.6-5.962,2.216-5.332,5.6-.186,10.022.043,20.072-.071,30.108.057,4.632-.4,9.421,1.144,13.9,1.944.658,3.9,1.3,5.89,1.916-6.1.457-12.209.186-18.313.129,6.1-1.6,4.46-8.492,4.746-13.21-.443-12.123.944-24.418-.829-36.441C381.681,234.65,379.065,233.921,377.75,233.549Z" transform="translate(-156.187 113.174)" fill="#fff"/>
      <path id="路径_1417" data-name="路径 1417" d="M403.843,232.37a24.146,24.146,0,0,1,6.848,6.518q17.648,22.778,35.612,45.142c-.7-15.735-1-31.505-1.3-47.258-2.445-.843-4.889-1.7-7.277-2.683,5.947-.722,11.923-.4,17.884-.516-2.33,1.771-6.476,2.236-5.633,6.672.029,19-.615,37.971-.515,56.974-15.354-15.2-28.363-33.517-41.93-50.938.1,11.78.543,23.56.529,35.34a49.945,49.945,0,0,0,1.473,11.66c2.03.636,4.074,1.307,6.119,1.995-5.876.98-11.852.688-17.741.224,1.873-1.548,5.833-1.341,5.561-5.056C404.186,271.1,403.443,251.717,403.843,232.37Z" transform="translate(-135.84 101.955)" fill="#fff"/>
      <path id="路径_1418" data-name="路径 1418" d="M472.272,235.838c-4.861-1.044-10.45.944-14.482-2.688a89.092,89.092,0,0,1,27.12,1.43c-.043,3.731-.272,7.463-.315,11.208-.315.029-.943.1-1.258.143C483.137,239.983,477.833,236.166,472.272,235.838Z" transform="translate(-112.115 113.174)" fill="#fff"/>
      <path id="路径_1419" data-name="路径 1419" d="M447.766,243.72c3.174-5.347,8.849-8.42,14.51-10.55,1.072.8,2.173,1.615,3.274,2.416-5.075,1.3-10.165,3.989-12.595,8.849a29.145,29.145,0,0,0-.9,22.173c4,10.851,16.3,17.827,27.663,15.6,1.844-.572,4.846-.658,4.389-3.36.129-5.547.5-11.151-.3-16.641-1.844-1.358-3.86-2.416-5.8-3.574a97.573,97.573,0,0,0,17.7.257v.486c-1.53.8-3.059,1.544-4.618,2.273-.872,6.962.815,14.282-1.072,21.044-12.237,5.361-27.663,3.96-38.356-4.232C442.348,269.811,440.833,254.271,447.766,243.72Z" transform="translate(-116.275 113.238)" fill="#fff"/>
    </g>
  </g>
</svg>
