<svg id="图层_1" data-name="图层 1" xmlns="http://www.w3.org/2000/svg" width="755" height="755" viewBox="0 0 755 755">
  <title>快乐飞艇</title>
  <circle id="椭圆_5" data-name="椭圆 5" cx="377.5" cy="377.5" r="377.5" style="fill: #506fc6"/>
  <path d="M209.78,423.86c4,1.05,8.11,3.05,13.17,4,26.43,9.17,59,19.28,92.58,26.44a38.45,38.45,0,0,1-9.17-4C272.87,438,242.33,428.81,209.78,423.86ZM114.25,377c32.65-8.11,66.15-10.11,99.74-8.11a302.36,302.36,0,0,1,85.42,18.33c48.77,17.27,110.91,37.6,176,42.76,35.6,2,67.09,0,98.69-7.16L702.17,214.26S467.3,173.61,38,346.45l-3.06,57.93h6.11c22.23-11.17,47.71-21.28,73.2-27.39ZM390.73,275.35c10.11,1.06,16.32,9.17,16.32,18.33A18.7,18.7,0,0,1,388.73,310c-10.11-1.05-16.33-9.16-16.33-18.32C372.61,282.51,381.57,274.3,390.73,275.35Zm-56.88,13.17c10.11,1.05,16.33,9.16,16.33,18.32-1.05,10.12-9.16,16.33-18.33,16.33s-16.32-9.16-16.32-18.33C316.48,294.63,324.69,288.52,333.85,288.52Zm-53.92,14.32c10.11,1.06,16.32,9.17,16.32,18.33a18.7,18.7,0,0,1-18.32,16.32c-10.11,0-16.33-9.16-16.33-18.32C261.71,309.79,270.76,301.79,279.93,302.84Zm67.19,163.68c-42.76-3.06-85.41-15.28-128.18-30.44A283.54,283.54,0,0,0,161,423.86C115.2,420.81,69.49,431,29.78,456.3,66.43,444.08,102,439,138.58,442a307.69,307.69,0,0,1,92.58,21.27c28.44,12.22,59,19.28,91.53,21.38a230.55,230.55,0,0,0,83.42-9.16c-16.33-2-32.65-6.11-48.77-10.11-3,2.21-6.21,2.21-10.22,1.16ZM188.51,173.61l5.16,18.33c10.11-3.06,37.6-12.22,68.14-17.28,6.11-1,11.17,3.06,12.22,9.17S271,195,264.87,196c-32.44,5.16-61.09,15.28-67.1,16.33l11.17,51.92S350.28,210.37,513,198.15L360.4,152.33S246.64,130,139.85,170.55C142.06,170.13,162.91,178.45,188.51,173.61Z" transform="translate(-0.48 -14.87)" style="fill: #fff"/>
  <g>
    <path d="M118.74,578.63q3.93-19.29,5.33-32.5l11.05,1.14q-1.78,15.24-5.34,33.39Q124.2,579.52,118.74,578.63Zm39.35-.51h28.57q.76-9.58,1.21-25H165l6.29,10.16-11.94,6.47-6.85-15v88.36H136V518h16.51v26.53l5.33-2.92L165,553V537h23.23l.26-18.79h16.5L204.69,537h31.1v41.13h8.89v16.13H208.94q11,23,35.74,32-4.2,6.35-10.29,16.63-25.32-10.15-36.88-39.48-6.72,23.36-32.56,40.24-5.72-8.88-11.55-16.38,23.73-12.32,30.53-33H158.09Zm61.45-25H204.43q.13,10-1,25h16.12Z" transform="translate(-0.48 -14.87)" style="fill: #fff"/>
    <path d="M277.3,588.79l16.38,8.63A249.35,249.35,0,0,1,264.1,636.9a142.6,142.6,0,0,0-14.22-11.81A195.92,195.92,0,0,0,277.3,588.79Zm29.08-41.14h19V569h44.69v16.76H325.42v33.77q0,10.15-4.57,15.42t-12.51,5.81q-7.93.54-22.4.6-2.16-11.16-4.32-18.91a144.69,144.69,0,0,0,16.12,1q8.64,0,8.64-7.61V585.74H255.85l9.27-59.92a886.27,886.27,0,0,0,92.29-6.48l6.48,16.89q-37.45,4.32-81.38,5.2L277.81,569h28.57Zm42.53,41.52q10.9,12.57,26.78,35.42-8.62,5.46-16.63,11-13.71-23.49-24.25-37.07Z" transform="translate(-0.48 -14.87)" style="fill: #fff"/>
    <path d="M484.36,526.71l16.76,16.88L466.34,567.9l31.1,14.54-8.51,17q-14.91-8.88-31.35-17.77,3,27.29,10.15,34.75t12.64,7.46a6.81,6.81,0,0,0,3.55-1.08q1.77-1.08,4.25-9.39a127.49,127.49,0,0,0,3.43-13.72,138.44,138.44,0,0,0,15.87,8.51q-4.58,19-10.44,26.69t-16.09,7.71q-20.07,0-31.42-18.56T438,539.53H380V523h76.55q-.51,14.47-.51,31.68A346.21,346.21,0,0,0,484.36,526.71Z" transform="translate(-0.48 -14.87)" style="fill: #fff"/>
    <path d="M529.05,516.68l16.25,2.15c-1.06,3.52-2.26,7.11-3.62,10.8h14.67v99a63.2,63.2,0,0,0,11.3-14.73,137.28,137.28,0,0,1-10.92-24.12l10.92-6.22a82.38,82.38,0,0,0,5.58,15.93,95.89,95.89,0,0,0,2.67-20.63H560V565.55l13.2-25H560.16V526.83H589.1v13.46l-12.69,24.88h13.2q-.25,29.77-6.35,48.5,11.29,10.67,28.82,10.66,16,0,24.25-.63-2.55,9.13-4.07,15.23h-21.2q-21,0-33.77-12.25a81.66,81.66,0,0,1-12.18,16.19q-3.43-4.89-9.4-12.06a15.22,15.22,0,0,1-3.33,6.82,10.41,10.41,0,0,1-6.73,3.27,133.31,133.31,0,0,1-13.81.7A158.16,158.16,0,0,0,528.16,625q7.76.76,10,.76,5.46,0,5.46-7.24V586.88H528.92q-.12,34.53-8.63,56.75A106.09,106.09,0,0,0,509.5,628.4Q514.84,614,516,586.88h-5.52V573.42h5.84V529.63h9.77Q527.72,523.35,529.05,516.68Zm14.6,26.53h-14.6v30.21h14.6Zm-5.33,48.24q2.59,8.07,5.14,19.11l-9.58,2.86q-2.16-9.78-4.83-19.43Zm.13-43q2.53,8.37,4.69,17.39l-9.9,2.54q-2.16-11.31-3.81-17.52Zm52,49.76H605V574.57H592.53V560.09H605V540c-3.43.29-6.94.55-10.54.76a87.82,87.82,0,0,0-3.93-14.86,340.35,340.35,0,0,0,39.1-4.06l5.46,14.35q-7.11,1.26-14.86,2.22v21.64h11.68v14.48H620.2v23.61h14v14.73H590.5Z" transform="translate(-0.48 -14.87)" style="fill: #fff"/>
  </g>
</svg>
