<svg id="MG电子" xmlns="http://www.w3.org/2000/svg" width="788.981" height="788.981" viewBox="0 0 788.981 788.981">
  <path id="路径_1206" data-name="路径 1206" d="M380.052,0H397.8c94.717.355,188.685,36.569,259.141,99.924,80.634,71.087,129.511,176.3,132.036,283.757v21.934c-2.643,101.581-46.313,201.269-119.61,271.725C601.717,744.01,509.288,783.1,414.768,788.981H381.275c-124.383-3.945-244.426-70.219-313.62-173.694C131.563,511.1,191.131,404.314,251.922,298.274c-7.653,88.958-1.7,180.243,26,265.532,10.493,30.455,23.314,63.276,51.008,82.093,20.237,13.807,47.339,11.046,67.971-.434,33.216-17.989,58.266-47.812,78.583-79.1,37.911-60.357,70.693-123.831,101.187-188.212,14.241,46.392,43.2,86.551,73.494,123.831,12.821,14.044,24.261,31.52,43.157,37.792.71-19.685-11.125-36.53-21.342-52.31-17.081-23.827-25.563-52.27-33.847-80a741.2,741.2,0,0,1-24.222-124.028c-2.288-13.768-3.156-29.39-13.215-40.041-11.874-9.586-29.587-3.708-39.567,6-19.764,19.054-24.182,47.457-35.622,71.324-34.36,75.742-76.807,147.54-121.858,217.364-11.361,15.859-21.894,34.715-40.435,43-11.046,2.485-16.135-9.941-18.975-18.265-10.217-35.5-17.752-71.995-19.33-109-4.616-81.5-4.142-163.28-1.223-244.86,1.026-34.084,5.76-68.562.316-102.528-1.539-12.781-9.744-26.825-24.143-26.9-17.279-3-28.837,12.742-37.4,25.169-27.259,42.566-46.037,89.826-71.166,133.614C143.831,319.853,90.772,397.962,38.423,476.387c-7.732,12.19-18.383,23.117-21.145,37.792C9.192,479.346,1.341,444.275,0,408.377V375.24c5.562-95.94,45.682-189.671,113.771-257.8C183.32,46.195,280.641,3.669,380.052,0Z" fill="#2acb8b"/>
</svg>
