<svg id="BBIN旗舰厅" xmlns="http://www.w3.org/2000/svg" width="818.377" height="818.377" viewBox="0 0 818.377 818.377">
  <path id="路径_17" data-name="路径 17" d="M394.008,0h36.541c92.067,5.524,182.293,41.7,250.914,103.647,81.224,71.485,130.572,176.2,136.914,284.018v32.694c-2.782,104.507-47.139,207.172-122.061,280.13C625.158,771.566,527.035,813.3,426.824,818.377H392.862C288.355,813.63,186.058,768.415,114,692.265,44.561,620.739,3.928,523.106,0,423.633V394.99C3.928,285.654,53.113,178.815,134.7,105.775,205.126,41.41,298.708,3.683,394.008,0ZM66.493,253.574c.2,42.228,0,84.456.082,126.685.286,20.664-2.578,41.86,3.683,61.91,7.365,28.93,27.825,54.5,54.954,67.148,31.712,14.649,70.994,13.912,100.824-4.992,21.319-14.322,37.2-34.986,56.591-51.64-11.7-4.3-24.347-6.179-36.663-3.805-22.751,2.332-34.986,26.229-57.123,30.566-32.244,10.23-69.439-9.37-80.2-41.123-13.708-33.553,7.979-75.7,42.8-84.948,24.265-8.8,52.131.818,69.317,19.15,39.609,39.487,79.874,78.36,119.729,117.642,35.19,36.131,98.164,39.446,136.792,6.956,27.784-23.978,54.381-49.307,81.8-73.695.45.164,1.391.409,1.841.573-.45,31.917-.45,63.833-.573,95.791,23.283,2.864,38.464-20.419,38.136-41.328-.164-29.953.45-59.905-.491-89.858,14.444-13.912,28.4-30.853,48.816-35.722,17.6-5.319,36.827-1.473,52.826,6.874,17.022,9.452,27.17,27.661,31.262,46.2,1.841,26.884-.941,53.972,1.268,80.856,1.882,18.25,17.431,34.986,36.745,33.1-.2-35.518-.082-71.035.041-106.553.941-25.943-12.03-50.617-29.093-69.357-37.359-39.937-107.248-41.819-146.2-3.11-7.079-11.662-18.823-20.418-33.1-19.068.286,16.286.409,32.612.082,48.939-15.017,12.685-28.807,26.72-43.865,39.4-2.21-14.854-4.747-30.116-12.235-43.374-18-34.044-56.836-55.65-95.218-53.767-25.738-.532-50.085,11.294-69.153,27.907.164-22.178,2.128-45.42-5.77-66.575-4.992-13.258-18.823-20.5-32.408-21.237q-.552,63.772-.041,127.5c22.342,7.447,48.9,4.624,66.329-12.317,16.122-17.718,43.251-22.505,65.429-14.69,33.1,9.207,53.113,48.734,42.515,81.06-6.22,21.523-24.51,38.791-46.034,44.52-22.915,7.284-48.652-.982-65.47-17.513-36.254-35.927-72.754-71.649-108.844-107.739-13.135-13.094-26.761-26.6-44.561-33.1-35.231-16.122-77.623-7.734-107.248,16.2.2-18.25,1.268-36.622-1.146-54.79C99.678,265.441,83.311,253.656,66.493,253.574Zm492.581,14.444c-7.9,16.572,10.557,27.334,19.4,38.382,10.23-10.271,27.948-21.605,20.7-38.627C592.259,250.505,565.457,249.973,559.074,268.018Z" fill="#c82600"/>
</svg>
