<svg xmlns="http://www.w3.org/2000/svg" width="844.547" height="843.75" viewBox="0 0 844.547 843.75">
  <path id="客服hover" d="M503.562,433.953c23.2,4.219,42.188,18.984,54.844,37.969s16.875,42.188,12.656,65.391a36.608,36.608,0,0,0,6.328,29.531c6.328,8.437,14.766,14.766,23.2,16.875h6.328c8.438,0,14.766-2.109,23.2-6.328,8.438-6.328,14.766-14.766,16.875-23.2,18.984-88.594-37.969-175.078-126.563-194.063h-6.328c-18.984,0-35.859,12.656-37.969,29.531a36.608,36.608,0,0,0,6.328,29.531c2.109,6.328,10.547,12.656,21.094,14.766Zm59.063-139.219c50.625,10.547,97.031,40.078,124.453,84.375,29.531,44.3,40.078,97.031,29.531,147.656-4.219,21.094,8.438,40.078,29.531,44.3h6.328c8.438,0,14.766-2.109,23.2-6.328,8.438-6.328,14.766-14.766,16.875-23.2,14.766-71.719,0-145.547-40.078-206.719S651.218,231.453,579.5,216.687h-6.328c-18.984,0-35.859,12.656-37.969,29.531-6.328,23.2,6.328,44.3,27.422,48.516Zm65.391,383.907a85.923,85.923,0,0,0-23.2-12.656c-6.328-2.109-10.547-2.109-16.875-2.109-21.094,0-42.188,10.547-65.391,33.75a429.793,429.793,0,0,0-31.641,35.859c-2.109,4.219-8.438,6.328-12.656,6.328h-2.109c-4.219,0-8.438-2.109-12.656-4.219C417.079,691.3,370.672,638.563,332.7,579.5S263.095,457.156,242,393.875c-2.109-8.438,2.109-18.984,10.547-23.2s59.063-25.313,59.063-25.313h2.109c29.531-14.766,59.063-29.531,46.406-82.266-10.547-50.625-25.313-99.141-40.078-132.891-10.547-25.313-29.531-33.75-40.078-37.969-4.219-2.109-10.547-2.109-18.984-2.109-12.656,0-27.422,4.219-46.406,12.656C201.924,107,90.127,159.733,90.127,294.733c0,29.531,2.109,183.516,122.344,362.813C282.08,763.015,353.8,834.734,448.721,889.577c23.2,14.766,48.516,25.313,71.719,33.75,23.2,6.328,44.3,10.547,67.5,10.547,80.156,0,130.781-46.406,137.109-52.734,23.2-21.094,33.75-40.078,33.75-61.172,0-29.531-23.2-54.844-37.969-69.609-40.078-37.969-90.7-71.719-92.813-71.719Zm0-588.516h-6.328c-18.984,0-35.859,12.656-37.969,29.531a36.608,36.608,0,0,0,6.328,29.531c6.328,8.437,14.766,14.766,23.2,16.875,80.156,16.875,149.766,63.281,194.063,132.891s61.172,149.766,44.3,229.922a36.608,36.608,0,0,0,6.328,29.531c6.328,8.437,14.766,14.766,23.2,16.875h6.328c8.438,0,14.766-2.109,23.2-6.328,8.438-6.328,14.766-14.766,16.875-23.2C967.625,336.922,834.734,134.422,628.016,90.125ZM628.016,90.125Z" transform="translate(-90.127 -90.124)" fill="#011c10"/>
</svg>
