<svg id="AG棋牌" xmlns="http://www.w3.org/2000/svg" width="818.377" height="818.377" viewBox="0 0 818.377 818.377">
  <g id="组_282" data-name="组 282">
    <g id="组_280" data-name="组 280">
      <path id="路径_1201" data-name="路径 1201" d="M394.335,0h36.09c96.037,5.892,189.945,45.011,259.589,111.708,78.646,73.449,125.621,178.9,128.362,286.391v22.137C815.635,523.8,772.139,625.608,698.444,698.485,626.427,771.361,526.216,814.49,423.96,818.377H394.335c-103.115-3.928-204.1-47.834-276.284-121.734C46.361,624.79,3.928,525.521,0,424.206v-36.3c5.892-95.1,44.274-188.1,109.826-257.543C182.5,51.435,287.209,4.01,394.335,0Zm15.017,229.473c-2.21,15.795-4.91,31.589-8.675,47.1-91.74-.573-183.439.286-275.179-.45-21.523,113.222-39.773,227.141-59.537,340.69,113.1-.409,226.2-.164,339.3-.082,1.923-15.385,4.583-30.648,7.243-45.911,92.108-.737,184.258-.409,276.366-.164,18.045-91.7,33.144-184.012,50.248-275.875,2.578-21.933,9.33-43.251,10.189-65.388Q579.349,229.268,409.352,229.473Z" fill="#2685ac"/>
    </g>
    <path id="路径_1202" data-name="路径 1202" d="M103.711,217.837c-2.823-86.093,83.925-162.652,168.954-148.985,40.387,5.647,75.127,37.686,82.9,77.869q-21.667-.184-43.292-.082c-11.13-20.991-31.508-38.382-55.977-40.141-56.468-7.324-111.913,42.433-113.141,98.86-.327,17.1,4.828,34.658,16.327,47.589,18.045,21.932,49.635,29.339,76.518,22.137,23.447-5.36,43.906-19.764,59.373-37.85-23.856-.286-47.711.123-71.567-.246q4.419-20.562,8.511-41.123c38.5-.082,76.968,0,115.432-.041-3.519,14.322-3.11,29.625-8.388,43.456-20.828,36.5-56.509,64.488-97.223,75.209-30.4,6.874-64.406,5.565-91.413-11.375C121.51,285.557,103.1,251.8,103.711,217.837Z" transform="translate(320.454 207.965)" fill="#2685ac"/>
    <g id="组_281" data-name="组 281" transform="translate(90.922 306.155)">
      <path id="路径_1203" data-name="路径 1203" d="M224.032,74.82c24.8,61.337,47.957,123.288,72.795,184.585-5.933,24.51-8.184,49.757-13.667,74.35-.859,1.228-2.578,3.765-3.437,5.033-9.7-24.715-19.477-49.348-29.584-73.9-39.037.532-78.073.041-117.11.246C113.183,291.2,93.419,317.305,74.064,343.7c-17.268.286-34.576.286-51.844.164C90.023,254.617,156.925,164.637,224.032,74.82ZM164.618,222.005c23.078.2,46.156-.164,69.235.573-8.1-20.7-16.327-41.328-23.856-62.2C195.348,181.25,179.839,201.546,164.618,222.005Z" transform="translate(-22.22 -74.82)" fill="#2685ac"/>
    </g>
  </g>
  <g id="组_284" data-name="组 284" transform="translate(65.961 229.293)">
    <g id="组_283" data-name="组 283">
      <path id="路径_1204" data-name="路径 1204" d="M359.511,56.216q169.956-.43,339.954-.082c-.859,22.137-7.611,43.456-10.189,65.388-17.1,91.863-32.2,184.176-50.248,275.875-92.108-.246-184.258-.573-276.366.164-2.66,15.263-5.319,30.525-7.243,45.911-113.1-.082-226.2-.327-339.3.082C35.884,330,54.134,216.086,75.657,102.863c91.74.737,183.439-.123,275.179.45C354.6,87.8,357.3,72.01,359.511,56.216Zm14.813,196.329c-.614,33.963,17.8,67.721,47.016,85.275,27.006,16.94,61.01,18.25,91.413,11.375,40.714-10.721,76.4-38.709,97.223-75.209,5.279-13.831,4.869-29.134,8.388-43.456-38.464.041-76.927-.041-115.432.041q-4.112,20.562-8.511,41.123c23.856.368,47.711-.041,71.567.246-15.467,18.086-35.927,32.49-59.373,37.85-26.884,7.2-58.473-.2-76.518-22.137-11.5-12.93-16.654-30.485-16.327-47.589C415,183.637,470.442,133.88,526.91,141.2c24.469,1.76,44.847,19.15,55.977,40.141q21.6-.123,43.292.082c-7.775-40.182-42.515-72.222-82.9-77.869C458.248,89.892,371.5,166.451,374.324,252.544ZM242.892,132.9c-67.107,89.817-134.009,179.8-201.812,269.041,17.268.123,34.576.123,51.844-.164,19.355-26.393,39.118-52.5,58.964-78.564,39.037-.2,78.073.286,117.11-.246,10.107,24.551,19.887,49.184,29.584,73.9.859-1.268,2.578-3.805,3.437-5.033,5.483-24.592,7.734-49.839,13.667-74.35C290.849,256.186,267.689,194.235,242.892,132.9Z" transform="translate(-16.12 -56.036)" fill="#e1e1e1"/>
    </g>
    <path id="路径_1205" data-name="路径 1205" d="M57.02,157.354C72.242,136.894,87.75,116.6,102.4,95.73c7.529,20.869,15.754,41.492,23.856,62.2C103.176,157.19,80.1,157.558,57.02,157.354Z" transform="translate(110.338 66.693)" fill="#e1e1e1"/>
  </g>
</svg>
