<svg xmlns="http://www.w3.org/2000/svg" width="876.707" height="876.575" viewBox="0 0 876.707 876.575">
  <path id="优惠活动" d="M819.447,170.268H755.612A101.724,101.724,0,0,0,771.228,126.1a113.479,113.479,0,0,0-189.04-96.438l-80.547,73.15a85.452,85.452,0,0,0-126.575,0L294.245,29.584A113.479,113.479,0,0,0,105.2,126.049a101.616,101.616,0,0,0,15.616,44.137H57.26A57.178,57.178,0,0,0,0,227.473V313.39a28.63,28.63,0,0,0,28.493,28.63h819.72a28.63,28.63,0,0,0,28.493-28.63V227.473a57.342,57.342,0,0,0-57.26-57.205ZM352.6,160.733v9.534H218.081A56.438,56.438,0,0,1,194.245,62.761a55.041,55.041,0,0,1,61.643,9.315L352.6,159.884Zm361.916-42.219a58.027,58.027,0,0,1-58.63,51.78H524.106V159.72c21.918-19.89,69.315-63.013,95.068-86.438a57.534,57.534,0,0,1,54.246-13.7,55.808,55.808,0,0,1,41.1,58.931ZM57.26,399.389V819.414A57.123,57.123,0,0,0,114.246,876.7H381.094V399.389Zm438.353,0V876.729H762.461a57.123,57.123,0,0,0,56.986-57.287V399.389H495.613Z" transform="translate(0 -0.154)" fill="#011c10"/>
</svg>
