<svg xmlns="http://www.w3.org/2000/svg" width="776.565" height="988.773" viewBox="0 0 776.565 988.773">
  <path id="APP下载" d="M841.991,1002.59H164.823a49.721,49.721,0,0,1-49.7-49.7V63.515a49.721,49.721,0,0,1,49.7-49.7H841.991a49.721,49.721,0,0,1,49.7,49.7V952.89a49.721,49.721,0,0,1-49.7,49.7ZM449.353,938.34a15.817,15.817,0,0,0,15.828,15.806h76.453a15.8,15.8,0,0,0,15.8-15.806V861.865a15.806,15.806,0,0,0-15.8-15.806H465.18a15.829,15.829,0,0,0-15.828,15.805V938.34Zm337.26-766.666c0-27.461-22.67-49.7-50.61-49.7H263.627c-27.962,0-50.633,22.238-50.633,49.7V797.638h573.62V171.67ZM328.289,479.327h72.917a14,14,0,0,0,14-14.027V269.813a14.017,14.017,0,0,1,14.027-14.027h128.5a14.012,14.012,0,0,1,14,14.027V465.3a14.031,14.031,0,0,0,14.027,14.027h72.917a14.01,14.01,0,0,1,9.9,23.926l-165.2,165.2a14,14,0,0,1-19.82,0l-165.2-165.2a14.027,14.027,0,0,1,9.921-23.926Z" transform="translate(-115.125 -13.817)" fill="#011c10"/>
</svg>
