<svg xmlns="http://www.w3.org/2000/svg" width="1207.555" height="872.476" viewBox="0 0 1207.555 872.476">
  <path id="代理合作" d="M532.359,874.285c-14.51-19.912-29.017-39.832-44.6-61.215-68.913,26.824-88.069,15.8-96.329-61.05-53.985,14.687-89.549,17.2-98.327-72.741-11.871,2.634-24.845,9.679-35.221,6.929-18.844-5.007-43.126-11.354-52.146-25.46-9.01-14.078-10.593-46.959-.728-56.68,51.122-50.374,37.147-91.217-6.949-135.944-9.384-9.512-4.618-32.978-6.367-50.027q6.638-2.036,13.286-4.073c18.869,23.206,36.287,47.826,57.191,69.017,10.848,11.006,27.493,21.53,42.166,22.506,37,2.462,54.153,21.322,54.841,55.66.5,25.084,11.633,31.123,34.86,36.958,18.072,4.536,38.611,22.669,46.153,39.954,10.223,23.429,21.989,33.614,46.672,39.2,16.195,3.653,30.207,20.124,43.465,32.7,12.917,12.251,22.5,28.062,35.606,40.047,14.17,12.966,30.214,24.122,46.407,34.561,12.069,7.768,25.4,17.382,38.681,18.251,10.46.685,25.169-8.414,31.27-17.631,3.434-5.168-4.017-22.6-11.374-28.938-25.134-21.66-53.1-40.03-78.371-61.544-6.64-5.641-7.467-18.121-10.959-27.458,10.148.538,22.755-2.627,30.041,2.214,46.143,30.621,91.318,62.707,136.37,94.928,21.082,15.076,42.886,24.376,61.07-.7,18.331-25.3,6.525-45.633-16.783-62.156-47.213-33.456-94.487-66.889-140.266-102.237-9.141-7.059-11.712-22.635-17.321-34.3,11.906,2.086,26.175.681,35.323,6.854,54.09,36.473,106.969,74.708,160.255,112.354,6.035,4.262,11.848,8.859,18.079,12.792,19.5,12.347,39.564,17.289,55.394-4.364,16.2-22.177,9.258-41.863-11.7-57.221q-93.806-68.833-187.868-137.3c-6.959-5.078-15.57-9.032-20.278-15.72-4.178-5.947-4-14.957-5.744-22.614,6.872-1.539,14.661-5.875,20.394-3.987,10.2,3.373,19.608,9.871,28.544,16.195C790.4,516.847,853.736,561.615,916.57,607.074c24.516,17.73,48.239,26.336,71.68.035,20.095-22.553,16.6-48.533-11.894-73.617Q819.735,395.568,661.745,259.2c-42.1-36.125-101.873-16.937-117,36.857-14.16,50.342-43.252,86.4-94.256,98.6-18.475,4.422-41.234-.841-59.665-7.887-8.7-3.327-17.893-22.2-16.366-32.461,5.716-38.371,14.962-76.287,24.521-113.969,5.635-22.2,14.349-43.621,23.406-70.549H316.927c3.826-37.69,20.66-51.239,54.077-48.081,24.418,2.3,49.545,2.975,73.771-.144,37.033-4.772,75.051-9.173,109.98-21.366,60.821-21.247,120.135-19.427,181.106-3.977,40.345,10.216,81.62,16.759,121.909,27.164,11.052,2.86,24.446,11.505,29.29,21.226,48.246,96.848,95.1,194.4,141.7,292.063,3.9,8.164,7.646,21.408,3.816,27.409-20.494,32.078-11.755,60.959,1.023,93.214,15.379,38.823-8.651,82.985-51.083,95.326-21.939,6.383-30.666,16.711-36.167,37.883-11.559,44.472-48.679,54.121-87.867,56.673-25.4,65.238-50.309,76.566-117.072,57.426-8.427-2.411-20.145,4.963-29.843,8.992-21.793,9.053-46.894,31.076-64.15,25.956-42.166-12.512-63.133,8.469-85.477,34.736q-14.791-.008-29.581-.005M207.033,1.817C230.525,14.7,253.78,28.063,277.592,40.349c19.891,10.26,25.838,23.665,15.685,44.758Q210.451,257.15,128.445,429.577c-10.658,22.32-27.808,26.74-48.505,15.986C52.893,431.519,26.619,415.977.006,401.087V378.9c32.981-63.623,66.3-127.084,98.847-190.93,31.539-61.846,62.291-124.08,93.389-186.157h14.79m805.927,0c12.135,19.618,25.814,38.457,36.149,58.989,50.25,99.874,98.728,200.648,149.794,300.1,16.356,31.859,9.849,48.307-22.152,62.866-77.771,35.4-77.338,36.463-115.4-41.18-47.05-95.976-93.513-192.236-141.3-287.843C906.364,67.382,908.581,49.34,938.764,36.1c20.811-9.132,39.672-22.693,59.411-34.288h14.785M1012.961,1.817Zm0,0" transform="translate(-0.006 -1.817)" fill="#fff"/>
</svg>
