<svg xmlns="http://www.w3.org/2000/svg" width="835.584" height="761.856" viewBox="0 0 835.584 761.856">
  <g id="vip线路" transform="translate(-94.208 -180.736)">
    <path id="路径_1" data-name="路径 1" d="M721.408,180.736H302.592L94.72,396.8v98.816L512,942.592,929.28,495.616V396.8Z" fill="#fc8614"/>
    <path id="路径_2" data-name="路径 2" d="M94.208,495.616,512,942.592,929.792,495.616Z" fill="#f68508"/>
    <path id="路径_3" data-name="路径 3" d="M94.72,495.616,512,498.688,303.1,180.736Z" fill="#f59900"/>
    <path id="路径_4" data-name="路径 4" d="M94.72,396.8,512,942.592,303.1,180.736Z" fill="#ffa200"/>
    <path id="路径_5" data-name="路径 5" d="M929.792,495.616l-417.28,3.072,208.9-317.952Z" fill="#f59900"/>
    <path id="路径_6" data-name="路径 6" d="M929.792,396.8,512.512,942.592l208.9-761.856Z" fill="#ffa200"/>
    <path id="路径_7" data-name="路径 7" d="M94.72,495.616,512,942.592,94.72,396.8Z" fill="#f59900"/>
    <path id="路径_8" data-name="路径 8" d="M929.792,495.616,512.512,942.592,929.792,396.8Z" fill="#f59900"/>
    <path id="路径_9" data-name="路径 9" d="M303.1,180.736,512,498.688,720.9,180.736Z" fill="#f6ae2d"/>
    <path id="路径_10" data-name="路径 10" d="M171.52,498.688,512,180.736,852.992,498.688Z" fill="#fcb81d"/>
    <path id="路径_11" data-name="路径 11" d="M703.488,414.72c-13.824,0-23.552,1.024-29.7,3.072-5.632,2.048-9.728,5.12-11.264,8.7L546.816,694.784H479.744L368.64,427.008c-2.048-4.1-6.144-7.168-12.8-9.216s-14.848-3.072-25.088-3.072V390.656h168.96V414.72H459.264c-8.7,0-13.312,2.56-13.312,7.168a9.879,9.879,0,0,0,1.536,5.12l88.576,218.624L624.64,430.08a11.671,11.671,0,0,0,1.536-5.632c0-6.656-7.168-9.728-20.992-9.728H576.512V390.656H702.464l1.024,24.064Z" fill="#fff"/>
  </g>
</svg>
