<svg xmlns="http://www.w3.org/2000/svg" width="1015.116" height="1013.424" viewBox="0 0 1015.116 1013.424">
  <path id="在线客服2" d="M574.352,862.236a145.719,145.719,0,0,0,15.567-.9c50.31-5.866,93.063-39.82,108.855-86.746a7.145,7.145,0,0,0-4.061-8.8,7.669,7.669,0,0,0-9.475,2.933c-.226.226-20.192,31.472-98.026,41.624a253.448,253.448,0,0,1-33.728,2.369c-54.484,0-78.849-19.853-79.075-20.079a7.651,7.651,0,0,0-9.7-.113,7.157,7.157,0,0,0-1.579,9.363,132.738,132.738,0,0,0,111.224,60.35ZM992.965,395.908c-.677,0-1.354.113-2.03.113C945.362,205.158,771.081,62.8,562.169,62.8,347.5,62.8,169.163,213.167,129.682,411.813,91.329,418.468,62,451.181,62,490.662V648.7c0,44.332,36.661,80.2,82.121,80.2a82.4,82.4,0,0,0,63.17-29.554C243.613,792.185,317.5,866.974,411.013,906.455a48.238,48.238,0,0,1,4.174-6.43c1.466-1.8,3.046-3.384,4.512-3.384a6.838,6.838,0,0,1,3.948,1.241C401.989,882.315,323.816,802.225,306.9,690.55c-7.445-49.182,30.682-97.462,75.127-105.471,71.292-12.747,142.132-27.411,213.311-40.045,45.347-8.009,76.255-32.036,95.206-71.968,4.4-9.363,10.829-28.2,13.762-55.5a8.626,8.626,0,0,1,8.686-7.107,9.027,9.027,0,0,1,7.107,3.61l1.918-1.241c28.088,39.481,83.813,126.678,91.822,218.725,9.137,105.245,4.061,177.214-79.3,250.987a6.484,6.484,0,0,0-2.143,4.851,6.6,6.6,0,0,0,3.046,5.415l2.03.9a8.994,8.994,0,0,0,1.692.338,3.98,3.98,0,0,0,1.579-.338l3.5-1.918c84.264-44.9,148.9-119.8,178.68-209.927a84.34,84.34,0,0,0,53.017,34.179c-35.307,154.879-178.455,252-355.668,266.667a72.518,72.518,0,0,0-67.569-43.542c-40.045,0-72.645,30.682-72.645,68.584,0,37.789,32.6,68.472,72.645,68.472,32.375,0,59.447-20.079,68.81-47.716,205.189-16.131,369.656-134.01,403.948-317.2,30.344-12.3,51.664-41.06,51.664-74.676V476.9c.113-44.67-37.563-80.88-84.151-80.993Zm-75.691,46.024c-53.469-140.1-192.217-240.271-355.33-240.271-162.437,0-300.62,99.267-354.653,238.466-2.594-3.158-5.866-5.866-8.911-8.686,30.57-169.656,181.613-298.59,363.677-298.59,181.275,0,331.754,127.693,363.339,296.221a88.452,88.452,0,0,0-8.122,12.86ZM411.126,906.342C410.9,906.568,410.9,906.681,411.126,906.342Z" transform="translate(-62 -62.8)" fill="#011c10"/>
</svg>
