<svg id="图层_1" data-name="图层 1" xmlns="http://www.w3.org/2000/svg" xmlns:xlink="http://www.w3.org/1999/xlink" viewBox="0 0 1024 1024"><defs><style>.cls-1{fill:url(#未命名的渐变_61);}.cls-2{opacity:0.2;}.cls-3{fill:#c0381f;}.cls-4{fill:#fcfcfc;}.cls-5{fill:#fff;}</style><linearGradient id="未命名的渐变_61" x1="512" y1="1024" x2="512" gradientUnits="userSpaceOnUse"><stop offset="0.2" stop-color="#e95223"/><stop offset="0.89" stop-color="#ecaf39"/></linearGradient></defs><title>16</title><rect class="cls-1" width="1024" height="1024" rx="512"/><g class="cls-2"><path class="cls-3" d="M142,457,104.5,676.5,160,673l41-39,29-184Zm21.5,187.5h-18l10-64h16Zm16-95h-18l10-64h16Z" transform="translate(-1)"/><polygon class="cls-3" points="243 461 307 459 309 445 346 428 346 452 364 453 338 489 316 628 283 662 237.5 637.5 276.5 635.5 300.5 487.5 240.37 489.94 243 461"/><ellipse class="cls-3" cx="258" cy="547" rx="29.18" ry="21.18" transform="translate(-265.94 243.18) rotate(-34.59)"/><path class="cls-3" d="M390,435,352.5,654.5,408,651l41-39,29-184Zm21.5,187.5h-18l10-64h16Zm16-95h-18l10-64h16Z" transform="translate(-1)"/><polygon class="cls-3" points="491 439 555 437 557 423 594 406 594 430 612 431 586 467 564 606 531 640 485.5 615.5 524.5 613.5 548.5 465.5 488.37 467.94 491 439"/><ellipse class="cls-3" cx="506" cy="525" rx="29.18" ry="21.18" transform="translate(-209.61 380.08) rotate(-34.59)"/><path class="cls-3" d="M640,417s84-3,111-14a270.88,270.88,0,0,0,46-24s-23,39-47,47-114,17-114,17Z" transform="translate(-1)"/><rect class="cls-3" x="635" y="450" width="35" height="40"/><rect class="cls-3" x="678" y="445" width="35" height="40"/><polygon class="cls-3" points="730 441 766 441 752 483 718 483 730 441"/><polygon class="cls-3" points="622 508 673 504 673 492 710 492 709 498 758 498 742 523 702 527 688 627 652.5 617.5 668.5 533.5 617.5 534.5 622 508"/><path class="cls-3" d="M633.5,543.5h27s-15,67-24,76-50,16-50,16,29-26,35-41S633.5,543.5,633.5,543.5Z" transform="translate(-1)"/><rect class="cls-3" x="706.5" y="534.5" width="36" height="82"/><path class="cls-3" d="M923,342s-56-3-91,43c-24.87,32.69-44.18,83-53.28,109.45-3.8,11-6.72,22.6-6.72,34.25v35c0,6,1.63,11.94,2.72,17.82A59.14,59.14,0,0,1,767,623c-15,25-49,72-46,93,2.25,15.76,24.77,28.13,35.87,33.33a12.27,12.27,0,0,1,7.13,11c0,8.12-2.58,20.06-17,25.7-23,9-33,16-48,16-12.49,0-190,1.39-249.06,1.85a83.68,83.68,0,0,0-35.22,8.09C381.76,827.58,305.48,861.6,249,870c0,0,80,32,132,28s127-62,150-64c19.66-1.71,133.56-.5,166.24-.11a67.85,67.85,0,0,0,19.83-2.7c14-4.08,38.38-15,55.93-31.19,26-24,25-54,23-68s-28-27-25-57,56-40,62-73-20-93-11-113S900,352,923,342Z" transform="translate(-1)"/><path class="cls-3" d="M180.5,713.39l9.51-.84-.62,67.27,31.46-2.8-.07,8.18-41,3.64Z" transform="translate(-1)"/><path class="cls-3" d="M290.4,740.53c-.24,26-15.77,41.11-34.56,42.78-19.45,1.73-33-12.5-32.76-35.34.22-24,14.9-40.92,34.56-42.66C277.74,703.52,290.6,718.15,290.4,740.53Zm-57.15,6.31c-.15,16.12,8.24,29.8,23.21,28.47s23.72-16.31,23.88-33.43c.14-15-7.37-30-23.21-28.59S233.4,730.28,233.25,746.84Z" transform="translate(-1)"/><path class="cls-3" d="M314.25,709.78l-22.4,2,.08-8.28,54.52-4.85-.08,8.29-22.5,2-.62,67.16-9.61.85Z" transform="translate(-1)"/><path class="cls-3" d="M372.7,704.59l-22.4,2,.07-8.29,54.52-4.84-.08,8.28-22.5,2-.62,67.16-9.61.86Z" transform="translate(-1)"/><path class="cls-3" d="M450.84,729.4,422.22,732l-.25,27.2,31.9-2.84-.08,8.17-41.4,3.68.69-75.44,39.77-3.53-.08,8.17-30.26,2.69-.22,23.84,28.63-2.55Z" transform="translate(-1)"/><path class="cls-3" d="M466.82,689a100.41,100.41,0,0,1,18.26-3.19c10.16-.9,16.69.42,21.24,4.26,3.69,3,5.72,8,5.66,13.82-.09,10-6.27,17.11-14.05,20.48v.34c5.66,1.51,9,6.58,10.67,14.26,2.31,10.31,4,17.43,5.5,20.2l-9.84.88c-1.18-2-2.76-8.37-4.75-17.59-2.09-10.21-6-13.78-14.61-13.35l-9,.8-.3,32.68-9.5.85ZM476,722.47l9.72-.86c10.16-.91,16.66-7.19,16.74-15.81.09-9.74-6.76-13.38-16.81-12.6a40.07,40.07,0,0,0-9.4,1.73Z" transform="translate(-1)"/><path class="cls-3" d="M540.1,756.81l.29-32-22.87-41.36,10.81-1,10.19,19.89c2.79,5.46,4.93,9.85,7.18,14.91l.22,0c2.12-5.11,4.67-10.26,7.57-16.22l10.79-21.76,10.81-1L550,723.83,549.71,756Z" transform="translate(-1)"/><path class="cls-3" d="M356.57,236.74l11.34,1q-6.09,20.85-15,44.25-4.67-.9-11.16-2Q348.87,262.11,356.57,236.74ZM380,196.39l13-.76-6.33,37.64,7.52-4.84a186.86,186.86,0,0,1,15.58,22.8l-11.68,8.14a178.54,178.54,0,0,0-12.31-20.79L364.92,363l-13,.77Zm11.17,82.87,46.14-2.71q3.76-14.28,9-42.38l-36.25,2.13,2-12.15L448.53,222q2.27-13.51,5-29.94l13.7-.81q-2.73,16.26-5.2,30l42.32-2.49-9.13,54.41,17-1-2,12.15L454,287.6q7.71,38,45.77,53.73a191.43,191.43,0,0,0-13.83,13.86q-35.7-19.59-42.77-59.33Q426.3,335,381.63,362.68a80.77,80.77,0,0,0-8.31-10.87q45.71-26.74,60.21-63l-44.4,2.61Zm97.64-47.59-29,1.71q-4.9,27.23-8.65,42.35l30.53-1.79Z" transform="translate(-1)"/><path class="cls-3" d="M579.59,333.41q43.08-1.85,101.08-6.62-2.86,5.76-7.13,13.81-57.48,3.7-98.59,5.12-29.43,1.38-37.92-17.6-8.21,6.93-24.67,24.16l-4.73-13.79q17.72-15.44,25.71-22.18L543,258.64l-20.64,1.22,2.13-12.67,34-2-12.3,73.24Q554,334.75,579.59,333.41Zm-26.87-144.8q7.06,10.08,18.86,30.91l-13.75,9.28q-10.41-20.91-17.44-32.18Zm32.34,41.64,43.54-2.56,2.79-16.6-51.69,3,2-11.81,51.69-3,3.13-18.65,12.84-.76-3.13,18.66,54.47-3.21-2,11.81-54.47,3.2-2.79,16.6L685,224.37l-8.24,49.11-12.49.74.89-5.31-31.06,1.83L632,283.06l5.66-7.11Q661,288.3,682.49,300.59l-10,12.62a435.84,435.84,0,0,0-41.26-25.36L625,325l-12.84.76,7.41-44.15A286.37,286.37,0,0,1,565,323.26a61.37,61.37,0,0,0-7.5-10.57q34.15-17.26,59.43-40.94l-26.71,1.57-.89,5.3-12.49.74Zm7,31.95,31-1.83,3.62-21.56-31,1.83Zm78.55-26-31,1.83L636,259.62l31-1.83Z" transform="translate(-1)"/></g><path class="cls-4" d="M142,439,104.5,658.5,160,655l41-39,29-184Zm21.5,187.5h-18l10-64h16Zm16-95h-18l10-64h16Z" transform="translate(-1)"/><polygon class="cls-4" points="243 443 307 441 309 427 346 410 346 434 364 435 338 471 316 610 283 644 237.5 619.5 276.5 617.5 300.5 469.5 240.37 471.94 243 443"/><ellipse class="cls-4" cx="258" cy="529" rx="29.18" ry="21.18" transform="translate(-255.72 239.99) rotate(-34.59)"/><path class="cls-4" d="M390,417,352.5,636.5,408,633l41-39,29-184Zm21.5,187.5h-18l10-64h16Zm16-95h-18l10-64h16Z" transform="translate(-1)"/><polygon class="cls-4" points="491 421 555 419 557 405 594 388 594 412 612 413 586 449 564 588 531 622 485.5 597.5 524.5 595.5 548.5 447.5 488.37 449.94 491 421"/><ellipse class="cls-4" cx="506" cy="507" rx="29.18" ry="21.18" transform="translate(-199.39 376.9) rotate(-34.59)"/><path class="cls-5" d="M640,399s84-3,111-14a270.88,270.88,0,0,0,46-24s-23,39-47,47-114,17-114,17Z" transform="translate(-1)"/><rect class="cls-5" x="635" y="432" width="35" height="40"/><rect class="cls-5" x="678" y="427" width="35" height="40"/><polygon class="cls-5" points="730 423 766 423 752 465 718 465 730 423"/><polygon class="cls-4" points="622 490 673 486 673 474 710 474 709 480 758 480 742 505 702 509 688 609 652.5 599.5 668.5 515.5 617.5 516.5 622 490"/><path class="cls-5" d="M633.5,525.5h27s-15,67-24,76-50,16-50,16,29-26,35-41S633.5,525.5,633.5,525.5Z" transform="translate(-1)"/><rect class="cls-4" x="706.5" y="516.5" width="36" height="82"/><path class="cls-4" d="M923,324s-56-3-91,43c-24.87,32.69-44.18,83-53.28,109.45-3.8,11-6.72,22.6-6.72,34.25v35.05c0,6,1.63,11.94,2.72,17.82A59.14,59.14,0,0,1,767,605c-15,25-49,72-46,93,2.25,15.76,24.77,28.13,35.87,33.33a12.27,12.27,0,0,1,7.13,11c0,8.12-2.58,20.06-17,25.7-23,9-33,16-48,16-12.49,0-190,1.39-249.06,1.85a83.68,83.68,0,0,0-35.22,8.09C381.76,809.58,305.48,843.6,249,852c0,0,80,32,132,28s127-62,150-64c19.66-1.71,133.56-.5,166.24-.11a67.85,67.85,0,0,0,19.83-2.7c14-4.08,38.38-15,55.93-31.19,26-24,25-54,23-68s-28-27-25-57,56-40,62-73-20-93-11-113S900,334,923,324Z" transform="translate(-1)"/><path class="cls-5" d="M180.5,695.39l9.51-.84-.62,67.27,31.46-2.8-.07,8.18-41,3.64Z" transform="translate(-1)"/><path class="cls-5" d="M290.4,722.53c-.24,26-15.77,41.11-34.56,42.78-19.45,1.73-33-12.5-32.76-35.34.22-24,14.9-40.92,34.56-42.66C277.74,685.52,290.6,700.15,290.4,722.53Zm-57.15,6.31c-.15,16.12,8.24,29.8,23.21,28.47s23.72-16.31,23.88-33.43c.14-15-7.37-30-23.21-28.59S233.4,712.28,233.25,728.84Z" transform="translate(-1)"/><path class="cls-5" d="M314.25,691.78l-22.4,2,.08-8.28,54.52-4.85-.08,8.29-22.5,2-.62,67.16-9.61.85Z" transform="translate(-1)"/><path class="cls-5" d="M372.7,686.59l-22.4,2,.07-8.29,54.52-4.84-.08,8.28-22.5,2-.62,67.16-9.61.86Z" transform="translate(-1)"/><path class="cls-5" d="M450.84,711.4,422.22,714l-.25,27.2,31.9-2.84-.08,8.17-41.4,3.68.69-75.44,39.77-3.53-.08,8.17-30.26,2.69-.22,23.84,28.63-2.55Z" transform="translate(-1)"/><path class="cls-5" d="M466.82,671a100.41,100.41,0,0,1,18.26-3.19c10.16-.9,16.69.42,21.24,4.26,3.69,3,5.72,8,5.66,13.82-.09,10-6.27,17.11-14.05,20.48v.34c5.66,1.51,9,6.58,10.67,14.26,2.31,10.31,4,17.43,5.5,20.2l-9.84.88c-1.18-2-2.76-8.37-4.75-17.59-2.09-10.21-6-13.78-14.61-13.35l-9,.8-.3,32.68-9.5.85ZM476,704.47l9.72-.86c10.16-.91,16.66-7.19,16.74-15.81.09-9.74-6.76-13.38-16.81-12.6a40.07,40.07,0,0,0-9.4,1.73Z" transform="translate(-1)"/><path class="cls-5" d="M540.1,738.81l.29-32-22.87-41.36,10.81-1,10.19,19.89c2.79,5.46,4.93,9.85,7.18,14.91l.22,0c2.12-5.11,4.67-10.26,7.57-16.22l10.79-21.76,10.81-1L550,705.83,549.71,738Z" transform="translate(-1)"/><path class="cls-5" d="M356.57,218.74l11.34,1q-6.09,20.85-15,44.25-4.67-.9-11.16-2Q348.87,244.11,356.57,218.74ZM380,178.39l13-.76-6.33,37.64,7.52-4.84a186.86,186.86,0,0,1,15.58,22.8l-11.68,8.14a178.54,178.54,0,0,0-12.31-20.79L364.92,345l-13,.77Zm11.17,82.87,46.14-2.71q3.76-14.28,9-42.38l-36.25,2.13,2-12.15L448.53,204q2.27-13.51,5-29.94l13.7-.81q-2.73,16.26-5.2,30l42.32-2.49-9.13,54.41,17-1-2,12.15L454,269.6q7.71,38,45.77,53.73a191.43,191.43,0,0,0-13.83,13.86q-35.7-19.59-42.77-59.33Q426.3,317,381.63,344.68a80.77,80.77,0,0,0-8.31-10.87q45.71-26.74,60.21-63l-44.4,2.61Zm97.64-47.59-29,1.71q-4.9,27.23-8.65,42.35l30.53-1.79Z" transform="translate(-1)"/><path class="cls-5" d="M579.59,315.41q43.08-1.85,101.08-6.62-2.86,5.76-7.13,13.81-57.48,3.7-98.59,5.12-29.43,1.38-37.92-17.6-8.21,6.93-24.67,24.16l-4.73-13.79q17.72-15.44,25.71-22.18L543,240.64l-20.64,1.22,2.13-12.67,34-2-12.3,73.24Q554,316.75,579.59,315.41Zm-26.87-144.8q7.06,10.08,18.86,30.91l-13.75,9.28q-10.41-20.91-17.44-32.18Zm32.34,41.64,43.54-2.56,2.79-16.6-51.69,3,2-11.81,51.69-3,3.13-18.65,12.84-.76-3.13,18.66,54.47-3.21-2,11.81-54.47,3.2-2.79,16.6L685,206.37l-8.24,49.11-12.49.74.89-5.31-31.06,1.83L632,265.06l5.66-7.11Q661,270.3,682.49,282.59l-10,12.62a435.84,435.84,0,0,0-41.26-25.36L625,307l-12.84.76,7.41-44.15A286.37,286.37,0,0,1,565,305.26a61.37,61.37,0,0,0-7.5-10.57q34.15-17.26,59.43-40.94l-26.71,1.57-.89,5.3-12.49.74Zm7,31.95,31-1.83,3.62-21.56-31,1.83Zm78.55-26-31,1.83L636,241.62l31-1.83Z" transform="translate(-1)"/></svg>