<svg xmlns="http://www.w3.org/2000/svg" width="830.464" height="1024" viewBox="0 0 830.464 1024">
  <path id="敬请期待" d="M878.387,918.528H856.781V841.011c0-119.6-126.259-194.56-126.259-194.56l-94.31-98c-22.221-23.04,0-46.9,0-46.9L737.485,396.493c68.71-71.373,119.4-147.661,119.4-147.661V105.472h21.709c26.829,0,48.64-23.552,48.64-52.736C927.232,23.757,905.523.2,878.49,0H145.408c-26.829,0-48.64,23.552-48.64,52.736,0,29.082,21.811,52.736,48.64,52.736h21.811v143.36s50.688,76.186,119.5,147.661L388.1,501.555s22.221,23.757,0,46.9l-94.515,98s-126.259,74.957-126.259,194.56v77.517H145.408c-26.829,0-48.64,23.654-48.64,52.736S118.579,1024,145.408,1024H878.592c26.829,0,48.64-23.654,48.64-52.736-.1-28.979-21.811-52.531-48.845-52.736ZM487.936,731.238l.614-206.131c.307-54.272-23.142-88.576-32.256-98.406l-102.4-106.189c-34.816-36.045-89.6-67.891-89.6-68.4H759.705s-54.169,31.744-89.6,68.4L568.832,425.574c-10.342,11.059-33.075,45.261-32.768,99.533V731.136L783.872,918.528l.2.2H240.026l.2-.2,247.706-187.29Z" transform="translate(-96.768)" fill="#fff"/>
</svg>
