<svg id="AG贵宾厅" xmlns="http://www.w3.org/2000/svg" width="872.144" height="872.144" viewBox="0 0 872.144 872.144">
  <g id="组_3" data-name="组 3">
    <g id="组_1" data-name="组 1">
      <path id="路径_12" data-name="路径 12" d="M428.354,0h29.435C559.48,5.974,659.036,46.965,733.255,117.085c85.078,78.406,136.011,191.741,138.889,307.344v23.243C869.31,554.945,825.615,660.562,750.872,737.7c-77.228,81.545-186.988,130.255-299.145,134.441h-31C320.905,868.306,222.7,829.8,147.959,763.3,58.652,685.549,4.317,570.208,0,451.945V420.33C4.274,303.986,56.777,190.389,143.6,112.725,220.783,42.3,323.958,1.7,428.354,0Zm12.3,244.593c-2.66,16.832-4.84,33.8-9.419,50.192-97.637-.654-195.317.305-293-.48-7.021,24.856-8.46,50.759-14.347,75.877C107.971,466.03,90.223,561.573,74.656,657.466c120.618-.523,241.279-.087,361.9-.218,1.439-16.44,4.8-32.618,7.5-48.884,98.16-.785,196.363-.392,294.567-.174,19.318-99.119,35.627-198.849,54.073-298.142,2.093-22.065,9.986-43.215,9.942-65.5Q621.642,244.418,440.651,244.593Z" fill="#d85c2a"/>
    </g>
    <path id="路径_13" data-name="路径 13" d="M104.706,227.309c-2.747-91.793,90.005-173.3,180.621-158.251,42.822,6.105,79.583,40.293,87.781,82.9q-23.155-.262-46.311,0c-11.469-22.632-33.578-40.816-59.437-42.866-63.143-8.242-125.327,50.846-120.269,114.251,1.657,29.478,23.2,56.559,51.675,64.451,40.337,12.515,84.467-7.849,110.065-39.465-25.336-.174-50.715.262-76.095-.218,3.1-14.565,6.149-29.13,8.983-43.782q61.617-.131,123.234,0c-3.489,14.172-4.1,28.868-7.5,43-21.629,40.685-60.919,71.647-105.442,83.421-31.484,7.064-66.457,5.931-94.846-10.727C124.678,301.615,103.834,264.593,104.706,227.309Z" transform="translate(351.687 226.032)" fill="#d85c2a"/>
    <g id="组_2" data-name="组 2" transform="translate(101.43 326.313)">
      <path id="路径_14" data-name="路径 14" d="M23.26,361.417C95.648,266.353,166.335,169.981,238.636,74.83c25.51,65.585,50.8,131.214,77.054,196.494-5.974,27.647-10.291,55.6-14.39,83.551l-4.535-2.137c-11.076-24.769-20.016-50.5-30.787-75.44-41.514.567-83.072.087-124.629.218-21.411,27.6-42.255,55.643-63.056,83.726C59.934,361.678,41.619,361.591,23.26,361.417ZM174.926,231.641c24.551.305,49.1-.305,73.653.7-8.5-22.152-17.4-44.13-25.423-66.457C207.762,188.3,190.93,209.707,174.926,231.641Z" transform="translate(-23.26 -74.83)" fill="#d85c2a"/>
    </g>
  </g>
  <g id="组_5" data-name="组 5" transform="translate(74.656 244.438)">
    <g id="组_4" data-name="组 4">
      <path id="路径_15" data-name="路径 15" d="M383.115,56.209q180.992-.392,361.983-.044c.044,22.283-7.849,43.433-9.942,65.5C716.71,220.957,700.4,320.687,681.083,419.806c-98.2-.218-196.407-.61-294.567.174-2.7,16.266-6.061,32.444-7.5,48.884-120.618.131-241.279-.305-361.9.218C32.688,373.19,50.436,277.646,66.353,181.8c5.887-25.118,7.326-51.02,14.347-75.877,97.68.785,195.36-.174,293,.48C378.275,90,380.455,73.042,383.115,56.209Zm15.742,208.748c-.872,37.284,19.972,74.307,52.459,92.709,28.388,16.658,63.361,17.792,94.846,10.727,44.523-11.774,83.813-42.735,105.442-83.421,3.4-14.129,4.012-28.824,7.5-43q-61.617-.065-123.234,0c-2.835,14.652-5.887,29.217-8.983,43.782,25.379.48,50.759.044,76.095.218-25.6,31.615-69.728,51.98-110.065,39.465-28.476-7.893-50.017-34.973-51.675-64.451-5.058-63.4,57.125-122.493,120.269-114.251,25.859,2.05,47.968,20.234,59.437,42.866q23.155-.262,46.311,0c-8.2-42.6-44.959-76.792-87.781-82.9C488.863,91.662,396.11,173.164,398.857,264.957ZM43.895,424.516c18.359.174,36.674.262,55.032-.174,20.8-28.083,41.645-56.122,63.056-83.726,41.558-.131,83.115.349,124.629-.218,10.771,24.943,19.71,50.672,30.787,75.44l4.535,2.137c4.1-27.952,8.416-55.9,14.39-83.551-26.252-65.28-51.544-130.909-77.054-196.494C186.97,233.08,116.283,329.452,43.895,424.516Z" transform="translate(-17.12 -56.055)" fill="#e1e1e1"/>
    </g>
    <path id="路径_16" data-name="路径 16" d="M58.04,161.47c16-21.934,32.836-43.346,48.23-65.76,8.024,22.327,16.92,44.3,25.423,66.457C107.142,161.164,82.591,161.775,58.04,161.47Z" transform="translate(120.401 77.216)" fill="#e1e1e1"/>
  </g>
</svg>
