<svg xmlns="http://www.w3.org/2000/svg" width="783.904" height="783.904" viewBox="0 0 783.904 783.904">
  <g id="VG棋牌" transform="translate(-4448.612 -133.613)">
    <g id="组_278" data-name="组 278" transform="translate(4448.612 133.613)">
      <g id="组_260" data-name="组 260" transform="translate(76.365)">
        <path id="路径_1181" data-name="路径 1181" d="M311.4,0h30.7a396.171,396.171,0,0,1,152.6,37.627C402.858,66.959,309.312,90.8,216.942,118.3c-43.507,13.261-89.757,14.829-132.611,30.7-23.125,8.884-47.884,13.13-72.642,10.321C80.412,64.15,194.34,4.769,311.4,0Z" transform="translate(-11.69)" fill="#fff8c5"/>
      </g>
      <g id="组_261" data-name="组 261" transform="translate(20.773 37.627)">
        <path id="路径_1182" data-name="路径 1182" d="M541.788,5.76c30.638,13.914,58.924,32.532,84.792,54.024C562.365,84.15,494.1,94.472,428.056,112.828c-40.959,11.563-82.31,21.753-122.942,34.492-81.787,30.964-170.5,11.171-255.488,19.532l-.131,5.357q-.2,11.857-.784,23.713c19.6,2.94,38.869,8.623,55,20.512C69.877,220.027,36.431,226.625,3.18,233.876c13.326-37.823,31.291-74.34,55.592-106.415,24.758,2.809,49.517-1.437,72.642-10.321,42.853-15.874,89.1-17.442,132.611-30.7C356.394,58.935,449.94,35.091,541.788,5.76Z" transform="translate(-3.18 -5.76)" fill="#fff5ba"/>
      </g>
      <g id="组_262" data-name="组 262" transform="translate(67.089 91.652)">
        <path id="路径_1183" data-name="路径 1183" d="M587.354,14.03c34.23,28.221,62.582,63.1,85.576,100.928-10.191,5.945-20.447,11.759-30.311,18.291-5.683,5.618-11.04,11.563-16.462,17.442-42.331-23.844-91.782-31.944-139.731-25.477-56.376,3.2-112.882.523-169.258,1.437.327,8.427.719,16.854,1.111,25.346-37.1,13.065-75.059,23.06-112.948,33.251-14.96,2.94-25.412,14.241-35.406,24.824C163.589,194,157.905,177.735,151.7,161.6a191.8,191.8,0,0,1,60.1-10.452c.2-8.231.457-16.4.653-24.628-67.416-.131-134.766.065-202.182-.065L10.4,121.1c84.988-8.362,173.7,11.432,255.488-19.532,40.632-12.738,81.983-22.929,122.942-34.492C454.875,48.718,523.14,38.4,587.354,14.03Z" transform="translate(-10.27 -14.03)" fill="#fff1aa"/>
      </g>
      <g id="组_263" data-name="组 263" transform="translate(699.439 192.579)">
        <path id="路径_1184" data-name="路径 1184" d="M137.381,29.48A407.183,407.183,0,0,1,180.822,137.4c-15.025,3.136-30.507,5.422-44.683,11.628-12.477,8.558-19.532,22.733-27.894,34.949,8.95-45.205,14.829-90.933,24.04-136.073-8.427-.065-16.789-.131-25.216-.131C116.934,41.239,127.19,35.425,137.381,29.48Z" transform="translate(-107.07 -29.48)" fill="#ffe987"/>
      </g>
      <g id="组_264" data-name="组 264" transform="translate(66.305 202.835)">
        <path id="路径_1185" data-name="路径 1185" d="M10.934,31.24c67.416.131,134.766-.065,202.182.065-.2,8.231-.457,16.4-.653,24.628a191.8,191.8,0,0,0-60.1,10.452c6.206,16.135,11.889,32.4,18.226,48.471,13.588,31.879,27.371,63.627,40.7,95.636,12.673,29.854,25.216,59.838,36.452,90.28,3.919,36.256,21.819,67.808,35.6,100.732-3.985,16.462-12.477,31.356-19.728,46.642-12.608.523-25.216,1.111-37.758,2.548-12.869-29.854-25.15-59.969-38.019-89.822-19.794-45.466-36.582-92.109-56.31-137.51-11.759-27.175-23.256-54.351-34.688-81.657-9.08-22.733-17.7-45.924-31.683-66.24-16.135-11.889-35.406-17.573-55-20.512Q10.738,43.1,10.934,31.24Z" transform="translate(-10.15 -29.999)" fill="#f18931"/>
        <path id="路径_1186" data-name="路径 1186" d="M57.25,32.487c56.376-.915,112.882,1.764,169.258-1.437-.457,7.97-.849,15.939-1.307,23.909-20.447,5.487-44.291,10.452-56.7,29.462-13.326,20.382-21.688,43.441-32.075,65.325-14.11,32.075-30.638,63.17-42.07,96.29-6.924,12.15-15.09,23.452-22.929,34.949-2.744-61.863,30.18-115.5,49.517-171.871,5.945-13.261,4.377-27.567.98-41.155-20.969-4.7-41.874-11.04-63.562-10.125C57.969,49.341,57.577,40.914,57.25,32.487Z" transform="translate(250.433 -31.05)" fill="#f18931"/>
      </g>
      <g id="组_265" data-name="组 265" transform="translate(309.823 200.695)">
        <path id="路径_1187" data-name="路径 1187" d="M84.267,32.863C132.215,26.4,181.667,34.5,224,58.34c5.422-5.879,10.779-11.824,16.462-17.442,8.427,0,16.789.065,25.216.131-9.211,45.14-15.09,90.868-24.04,136.073-.588,1.176-1.829,3.658-2.482,4.9-7.447.065-14.96.2-22.472.392-3-18.552-5.814-37.1-10.06-55.461-7.055-21.884-19.075-42.919-38.477-56.049-24.366-18.1-56.506-16.527-85.184-14.11C83.417,48.8,83.809,40.833,84.267,32.863Z" transform="translate(149.156 -30.722)" fill="#d11c19"/>
        <path id="路径_1188" data-name="路径 1188" d="M176.265,36.7c3.4,13.588,4.965,27.894-.98,41.155-19.336,56.376-52.26,110.008-49.517,171.871-3.724,37.889,2.94,77.541,26.718,108.244,43.049,49.909,122.746,49.19,175.66,16.4,10.779-18.552,11.759-40.828,16.789-61.275,1.372-16.135,11.432-36.713-2.744-49.517-17.246-11.3-39.261-9.407-58.924-12.673.98-5.161,3-15.547,3.985-20.773,64.476.261,128.952-.653,193.363.457-1.372,4.965-4.181,14.829-5.553,19.728-22.472,3.92-48.994,5.291-62.124,27.11-8.3,36.256-14.176,72.968-19.794,109.681-63.823,24.3-132.806,42.331-201.529,33.185-44.879-6.859-87.013-30.638-115.626-65.913-15.809-20.12-22.015-45.27-28.482-69.506-.784-40.371,4.05-81.069,18.683-118.958C88.01,112.477,127.14,66.946,176.265,36.7Z" transform="translate(-47.428 2.349)" fill="#d11c19"/>
      </g>
      <g id="组_266" data-name="组 266" transform="translate(226.744 229.53)">
        <path id="路径_1189" data-name="路径 1189" d="M183.064,35.225c21.688-.915,42.592,5.422,63.562,10.125C197.5,75.6,158.371,121.128,136.552,174.564c-21.231.065-41.939,5.357-61.145,14.372C62.081,156.926,48.3,125.178,34.71,93.3,44.7,82.717,55.157,71.416,70.116,68.476,108.005,58.285,145.959,48.29,183.064,35.225Z" transform="translate(-34.71 -35.136)" fill="#ffee9b"/>
      </g>
      <g id="组_267" data-name="组 267" transform="translate(453.162 225.301)">
        <path id="路径_1190" data-name="路径 1190" d="M101.445,65.394c12.412-19.01,36.256-23.974,56.7-29.462,28.678-2.417,60.818-3.985,85.184,14.11,19.4,13.13,31.422,34.165,38.477,56.049-9.6-6.467-18.879-13.849-29.723-18.16-21.753-.327-42.592,7.708-63.235,13.588-39.065,12.8-79.5,20.055-119.48,29.2C79.757,108.835,88.118,85.776,101.445,65.394Z" transform="translate(-69.37 -34.489)" fill="#ffec93"/>
      </g>
      <g id="组_268" data-name="组 268" transform="translate(2.94 248.302)">
        <path id="路径_1191" data-name="路径 1191" d="M18.284,55.452C51.534,48.2,84.981,41.6,118.82,38.01c13.98,20.316,22.6,43.507,31.683,66.24-51.411.523-100.144,18.1-150.052,27.959A423.663,423.663,0,0,1,18.284,55.452Z" transform="translate(-0.45 -38.01)" fill="#fff1a9"/>
      </g>
      <g id="组_269" data-name="组 269" transform="translate(409.525 278.734)">
        <path id="路径_1192" data-name="路径 1192" d="M289.042,42.678c10.844,4.312,20.12,11.693,29.723,18.16,4.246,18.356,7.055,36.909,10.06,55.461a174.623,174.623,0,0,0-31.356,4.638c-62.19,16.919-124.837,31.879-187.288,47.949-16.919,4.9-32.205,13.98-47.492,22.537l1.568-9.668c11.432-33.12,27.959-64.215,42.07-96.29,39.979-9.146,80.416-16.4,119.48-29.2C246.45,50.387,267.289,42.352,289.042,42.678Z" transform="translate(-62.69 -42.669)" fill="#ffe781"/>
      </g>
      <g id="组_270" data-name="组 270" transform="translate(387.198 300.497)">
        <path id="路径_1193" data-name="路径 1193" d="M400.583,57.628c14.176-6.206,29.658-8.492,44.683-11.628a455.1,455.1,0,0,1,10.713,70.878v35.8c-.915,16.723-2.744,33.447-5.291,50.039-35.994,5.487-81.526,5.618-99.491,43.7-.915-5.1-2.874-15.351-3.789-20.447,13.13-21.819,39.652-23.191,62.124-27.11,1.372-4.9,4.181-14.764,5.553-19.728-64.411-1.111-128.887-.2-193.363-.457-.98,5.226-3,15.613-3.985,20.773,19.663,3.266,41.678,1.372,58.924,12.673,14.176,12.8,4.116,33.381,2.744,49.517-2.94-5.945-5.879-11.824-8.819-17.769a781.555,781.555,0,0,0-78.913,20.447c-35.864,11.236-75.973,15.482-104.717,42.2-23.778-30.7-30.442-70.355-26.718-108.244,7.839-11.5,16-22.8,22.929-34.949L81.6,172.993c15.286-8.558,30.572-17.638,47.492-22.537,62.451-16.07,125.1-31.03,187.288-47.949a174.624,174.624,0,0,1,31.356-4.638c7.512-.2,15.025-.327,22.472-.392.653-1.241,1.894-3.724,2.482-4.9C381.051,80.361,388.106,66.186,400.583,57.628Z" transform="translate(-59.272 -46)" fill="#ffe36d"/>
      </g>
      <g id="组_271" data-name="组 271" transform="translate(0 314.542)">
        <path id="路径_1194" data-name="路径 1194" d="M2.94,76.109c49.909-9.864,98.641-27.437,150.052-27.959,11.432,27.306,22.929,54.481,34.688,81.657-13.849,7.186-27.829,14.568-43.245,17.507-47.426,9.864-92.7,27.763-139.992,38.15C2.352,170.831.784,156.2,0,141.435V106.682C.719,96.425,1.633,86.235,2.94,76.109Z" transform="translate(0 -48.15)" fill="#ffec95"/>
      </g>
      <g id="组_272" data-name="组 272" transform="translate(267.442 368.958)">
        <path id="路径_1195" data-name="路径 1195" d="M40.94,70.852c19.206-9.015,39.914-14.306,61.145-14.372C87.452,94.369,82.618,135.066,83.4,175.438c-1.5-3.593-4.507-10.713-6.01-14.306C66.156,130.69,53.613,100.705,40.94,70.852Z" transform="translate(-40.94 -56.48)" fill="#ffe884"/>
      </g>
      <g id="组_273" data-name="组 273" transform="translate(4.442 396.198)">
        <path id="路径_1196" data-name="路径 1196" d="M183.918,60.65c19.728,45.4,36.517,92.043,56.31,137.51-38.085,4.377-73.948,18.879-111.445,26.457-28.351,5.814-56.572,12.608-84.466,20.512C22.891,204.888,7.6,161.382.68,116.307c47.3-10.387,92.566-28.286,139.992-38.15C156.089,75.218,170.069,67.836,183.918,60.65Z" transform="translate(-0.68 -60.65)" fill="#ffe579"/>
      </g>
      <g id="组_274" data-name="组 274" transform="translate(117.52 457.212)">
        <path id="路径_1197" data-name="路径 1197" d="M579.592,113.693c17.964-38.085,63.5-38.215,99.491-43.7a398.7,398.7,0,0,1-63.954,157.7c-60.165,13.849-118.631,34.492-179.906,43.376-73.426,20.186-146.721,41.22-220.016,62.32-30.507,8.1-62.059,13-91.39,25.15C84.557,340.5,49.15,314.96,17.99,285.172c21.557-13.13,45.793-20.447,70.682-23.321,32.4-3.854,62.908-15.547,93.807-25.542,12.542-1.437,25.15-2.025,37.758-2.548,7.251-15.286,15.743-30.18,19.728-46.642-13.784-32.924-31.683-64.476-35.6-100.732,1.5,3.593,4.507,10.713,6.01,14.306,6.467,24.236,12.673,49.386,28.482,69.506,28.613,35.276,70.747,59.054,115.626,65.913,68.722,9.146,137.706-8.884,201.529-33.185,5.618-36.713,11.5-73.426,19.794-109.681C576.718,98.341,578.678,108.6,579.592,113.693Z" transform="translate(-17.99 -69.99)" fill="#ffdb4f"/>
      </g>
      <g id="组_275" data-name="组 275" transform="translate(414.881 498.367)">
        <path id="路径_1198" data-name="路径 1198" d="M168.227,96.737A781.56,781.56,0,0,1,247.14,76.29c2.94,5.945,5.879,11.824,8.819,17.769-5.03,20.447-6.01,42.723-16.789,61.275-52.914,32.793-132.611,33.512-175.66-16.4C92.253,112.219,132.363,107.973,168.227,96.737Z" transform="translate(-63.51 -76.29)" fill="#ffdd58"/>
      </g>
      <g id="组_276" data-name="组 276" transform="translate(48.079 533.708)">
        <path id="路径_1199" data-name="路径 1199" d="M91.826,108.157c37.5-7.578,73.36-22.08,111.445-26.457,12.869,29.854,25.15,59.969,38.019,89.822-30.9,9.995-61.406,21.688-93.807,25.542-24.889,2.874-49.125,10.191-70.682,23.321C49.626,193.145,25.847,162.377,7.36,128.669,35.254,120.765,63.474,113.971,91.826,108.157Z" transform="translate(-7.36 -81.7)" fill="#ffdf60"/>
      </g>
      <g id="组_277" data-name="组 277" transform="translate(223.347 614.908)">
        <path id="路径_1200" data-name="路径 1200" d="M345.6,137.506c61.275-8.884,119.741-29.527,179.906-43.376-68.265,100.405-185.524,164.163-306.572,169H184.112c-51.8-3.136-103.149-15.482-149.922-38.15,29.331-12.151,60.883-17.05,91.39-25.15C198.875,178.726,272.17,157.692,345.6,137.506Z" transform="translate(-34.19 -94.13)" fill="#ffd847"/>
      </g>
    </g>
  </g>
</svg>
