<svg xmlns="http://www.w3.org/2000/svg" width="919.473" height="924.672" viewBox="0 0 919.473 924.672">
  <path id="免费开户" d="M762.88,937.984A205.27,205.27,0,0,1,681.472,921.6,209.687,209.687,0,0,1,569.344,809.472,208.5,208.5,0,0,1,614.4,580.1a215.249,215.249,0,0,1,67.072-44.544,210.44,210.44,0,0,1,162.816,0,206.017,206.017,0,0,1,111.1,111.1,210.44,210.44,0,0,1,0,162.816,215.249,215.249,0,0,1-44.544,67.072,207.448,207.448,0,0,1-147.968,61.44ZM866.3,694.272H790.528V623.616a35.469,35.469,0,0,0-9.216-24.576Q772.1,588.8,757.76,588.8t-22.528,10.24q-8.192,10.24-8.192,24.576v70.656H660.48a34.963,34.963,0,0,0-34.816,34.816q0,14.336,10.24,21.5t24.576,7.168h66.56v72.7q0,14.336,8.192,24.576t22.528,10.24q14.336,0,23.552-10.24a35.469,35.469,0,0,0,9.216-24.576v-72.7H866.3v2.048q14.336,0,24.576-8.192t10.24-22.528A34.963,34.963,0,0,0,866.3,694.272ZM613.376,439.3q-4.1,16.384-8.192,29.7a191.146,191.146,0,0,1-10.24,23.04q-6.144,11.776-13.312,17.92-9.216,7.168-12.8,15.36a142.234,142.234,0,0,0-6.144,16.9q-2.56,8.7-5.632,17.92a62.4,62.4,0,0,1-10.24,18.432q-23.552,30.72-35.328,59.392a264.828,264.828,0,0,0-16.384,55.3,211.256,211.256,0,0,0-2.56,52.736,307.886,307.886,0,0,0,8.192,50.688,236.919,236.919,0,0,0,12.288,38.4q8.192,19.968,24.064,40.96t40.448,40.96q24.576,19.968,61.44,38.4-24.576,5.12-57.344,9.216-27.648,3.072-68.1,5.632t-92.672,2.56q-26.624,0-61.952-2.048t-72.7-5.12q-37.376-3.072-73.728-7.168t-66.56-8.7q-30.208-4.608-51.2-9.728t-26.112-9.216q-9.216-8.192-14.336-45.568t3.072-97.792q5.12-33.792,27.136-51.712t51.712-28.16q29.7-10.24,61.952-18.944t56.832-24.064q19.456-12.288,29.7-23.04t14.336-22.016a68.38,68.38,0,0,0,4.1-23.552q0-12.288-1.024-26.624-2.048-21.5-14.848-33.792T260.1,510.976q-8.192-6.144-14.336-18.432a224.281,224.281,0,0,1-10.24-23.552,170.082,170.082,0,0,1-8.192-29.7,47.247,47.247,0,0,1-13.312-6.144,68.425,68.425,0,0,1-11.264-12.288q-6.144-8.192-11.264-24.576-5.12-15.36-3.584-28.672t5.632-22.528A60.688,60.688,0,0,1,204.8,325.632,595.456,595.456,0,0,1,208.9,256a565.318,565.318,0,0,1,12.8-63.488,175.476,175.476,0,0,1,28.16-60.416q18.432-25.6,39.424-41.984a183.993,183.993,0,0,1,43.52-25.6,203.1,203.1,0,0,1,45.056-12.8,274,274,0,0,1,43.008-3.584,210.335,210.335,0,0,1,51.2,6.144,231.921,231.921,0,0,1,45.568,16.384A210.063,210.063,0,0,1,555.008,93.7q16.384,12.8,26.624,26.112a194.579,194.579,0,0,1,34.3,65.536,529.839,529.839,0,0,1,15.872,67.584,445.181,445.181,0,0,1,4.1,73.728,44.708,44.708,0,0,1,10.24,12.288q4.1,6.144,6.144,16.384t0,25.6q-2.048,19.456-8.192,30.72t-13.312,17.408a50.825,50.825,0,0,1-17.408,10.24Z" transform="translate(-52.303 -48.128)" fill="#fff"/>
</svg>
