<svg xmlns="http://www.w3.org/2000/svg" width="819.144" height="819.144" viewBox="0 0 819.144 819.144">
  <g id="BG大游厅" transform="translate(-1329 835)">
    <g id="椭圆_6" data-name="椭圆 6" transform="translate(1329 -835)" fill="#cb1c79" stroke="#707070" stroke-width="1">
      <circle cx="409.572" cy="409.572" r="409.572" stroke="none"/>
      <circle cx="409.572" cy="409.572" r="409.072" fill="none"/>
    </g>
    <g id="组_391" data-name="组 391" transform="translate(1441.195 -555.418)">
      <path id="联合_2" data-name="联合 2" d="M39.241,291.484c-13.08.073-26.161.146-39.241-.055,7.271-30.943,14.807-61.842,22.077-92.83,5.452-23.85,10.95-47.745,17.023-71.462,14.407-9.575,12.235-29.7,18.264-44.332,16.8,10.374,29.835,25.314,45,37.593,26.421,13.078,52.8,26.288,78.421,40.874-25.623-14.586-52-27.8-78.421-40.874-15.162-12.279-28.195-27.219-45-37.593-6.029,14.629-3.857,34.756-18.264,44.332C48.587,84.712,59.183,42.553,68.226.04c46.414,0,92.83-.133,139.289.088C233.8.3,261.866,4.118,283.277,20.609c25.269,19.24,31.032,58.385,13.566,84.673-12.767,18.663-32.273,32.14-53.6,39.455,17.556,9.443,33.781,24.471,37.77,44.774,4.078,25.314-4.788,50.627-18.309,71.773-6.738,7.271-13.654,14.452-21.943,20.082q-.039-.525-.039-1.033,0,.508.039,1.033c-12.457,6.25-26.51,7.979-40.165,9.486-38.08.887-76.161.666-114.286.843C70.622,291.308,54.931,291.4,39.241,291.484Zm68.451-47.8c20.892.179,41.788.358,62.63-1.1,22.343.709,46.5-12.767,51.025-35.908,2.793-10.507-3.635-20.038-9.353-28.195a66.243,66.243,0,0,0-35.421-10.064q-43.754-.465-87.554.089c-4.744,23.363-10.2,46.592-15.871,69.733L71.6,243.685q7.7-.135,15.4-.123C93.891,243.562,100.791,243.621,107.692,243.68ZM273.347,191.2a90.4,90.4,0,0,1,.984,13.293,90.4,90.4,0,0,0-.984-13.293Zm-.274-.051-.216-.041Zm-.819-.159-.526-.107Zm-.594-.122a114.979,114.979,0,0,1-13.688-3.936A114.979,114.979,0,0,0,271.661,190.865Zm-59.372-12.453a42.959,42.959,0,0,1,8.682-.869A42.925,42.925,0,0,0,212.288,178.411Zm8.735-.869h0ZM92.079,162.883c9.87-.867,19.76-1.1,29.654-1.1C111.837,161.787,101.949,162.016,92.079,162.883Zm62.782-.813h0Zm.041,0c7.826,0,15.646-.144,23.455-.633C170.548,161.925,162.726,162.069,154.9,162.07Zm-14.692-.118-1.9-.024Zm-1.9-.024-1.341-.017Zm-16.512-.141h0Zm56.607-.353q1.191-.075,2.381-.16Q179.593,161.359,178.4,161.433ZM135.44,117.018c22.584.3,45.174.6,67.509-2.737A47.322,47.322,0,0,0,238.5,90.7c9.664-19.151-6.739-39.455-26.378-40.564-31.076-1.861-62.286-.886-93.362-.665l-3.015,13.3-.532.222c-4.433,18.043-9.265,36-13.786,54.04,4.867-.134,9.741-.182,14.619-.182C122.509,116.847,128.974,116.932,135.44,117.018Z" transform="translate(0 0)" fill="#fff" stroke="rgba(0,0,0,0)" stroke-width="1"/>
      <path id="联合_1" data-name="联合 1" d="M27.738,259.571a226.23,226.23,0,0,1-14.053-22.077c-28.859-60.512-9.4-135.477,33.382-184.507C60.056,40.84,73.444,28.826,89.447,20.758A220.817,220.817,0,0,1,121.233,8.079C138.389,3.159,156.166,1.3,173.854.011c41.095-.488,82.634,14.762,110.34,45.794a195.783,195.783,0,0,1,14.763,25.623c3.325,10.6,4.078,21.678,4.344,32.717-15.2-.822-30.441-.641-45.679-.462-6.986.082-13.971.165-20.95.151-5.364-25.889-26.156-47.612-51.957-53.463C151.2,47.579,114.893,59.77,93.26,86.28,66.882,115.273,62.539,156.944,67.1,194.315c1.64,8.733,5.851,16.669,10.019,24.426-21.368-3.945-42.6-8.866-64.37-9.974,21.767,1.108,43,6.03,64.37,9.974,16.8,22.122,44.375,37.283,72.747,32.363,30.456-.311,59.537-15.649,76.029-41.406,3.414-6.916,6.605-13.92,9.753-20.969-34.489-1.2-68.935-.177-103.424-.088q6.25-24.339,11.57-48.809c22.343-.307,44.7-.056,67.061.194,32.653.365,65.312.731,97.941-.636l.8.355c-1.817,9.974-3.547,19.993-4.655,30.1-3.59,14.984-7.758,29.835-13.521,44.11-2.217-4.123-4.478-8.245-6.694-12.368,2.217,4.123,4.478,8.245,6.694,12.368-3.768,8.955-8.2,17.6-12.812,26.111-8.91,11.394-17.777,23.1-29.391,31.919-26.865,21.456-62.374,26.333-95.578,29.613a164.138,164.138,0,0,1-17.193.9C96.468,302.5,56.345,287.984,27.738,259.571ZM234.461,210.2h0Zm.93-.006a124.343,124.343,0,0,0,24.329-3.163A124.389,124.389,0,0,1,235.391,210.2Z" transform="translate(306.968 0.264)" fill="#fff" stroke="rgba(0,0,0,0)" stroke-width="1"/>
    </g>
  </g>
</svg>
