<svg xmlns="http://www.w3.org/2000/svg" width="1021.396" height="749.981" viewBox="0 0 1021.396 749.981">
  <path id="快速访问" d="M447.851,186c10.366-21.78,32.273-37.673,56.275-40.49,29.528-4.244,60.356,12.064,73.793,38.594,11.811,21.979,11.378,49.827-.813,71.554a75.378,75.378,0,0,1-38.161,33.068q86.309,165.411,172.527,330.913,97.145-75.987,194.2-152.065c-14.61-11.992-24.9-29.384-27.253-48.238a74.668,74.668,0,0,1,18.566-60.447,72.72,72.72,0,0,1,100.323-7.224c15.116,12.245,24.471,30.756,26.693,49.99v12.985a73.814,73.814,0,0,1-36.264,58.3c-16.525,9.915-36.951,12.5-55.589,7.91q-29.284,135.1-58.388,270.231c-2.149,10.854-5.2,21.545-6.393,32.58-1.174,10.728-7.08,20.263-14.159,28.137-13.635,14.809-31.406,24.977-49.412,33.537-32.382,14.9-66.948,24.453-101.75,31.713-50.387,10.348-101.75,15.459-153.112,17.229-79.229,2.366-159.072-2.727-236.6-19.884-40.581-9.5-81.523-21.528-116.884-44.247-13.834-9.211-27.271-20.715-33.682-36.481-2.655-5.942-2.492-12.57-3.756-18.836q-31.4-147.017-62.9-294c-22.828,5.671-48.274.47-66.226-14.954a74.7,74.7,0,0,1,6.14-118.419c26.331-18.512,64.89-16.128,88.711,5.526a74.676,74.676,0,0,1,24.833,64.167c-1.914,19.649-12.281,38.07-27.6,50.441q97.28,75.933,194.361,152.083,86.2-165.492,172.4-330.985a74.324,74.324,0,0,1-41.917-40.924A75.415,75.415,0,0,1,447.85,186Z" transform="translate(-2.604 -144.84)" fill="#fff"/>
</svg>
