<?xml version="1.0" standalone="no"?>
<!-- Generator: Adobe Fireworks 10, Export SVG Extension by Aaron Beall (http://fireworks.abeall.com) . Version: 0.6.1  -->
<!DOCTYPE svg PUBLIC "-//W3C//DTD SVG 1.1//EN" "http://www.w3.org/Graphics/SVG/1.1/DTD/svg11.dtd">
<svg id="Untitled-%u9875%u9762%201" viewBox="0 0 1024 1024" style="background-color:#ffffff00" version="1.1"
	xmlns="http://www.w3.org/2000/svg" xmlns:xlink="http://www.w3.org/1999/xlink" xml:space="preserve"
	x="0px" y="0px" width="1024px" height="1024px"
>
	<g id="%u5C42%201">
		<path d="M 896 307.2 L 128 307.2 C 113.869 307.2 102.4 295.731 102.4 281.6 C 102.4 267.469 113.869 256 128 256 L 896 256 C 910.131 256 921.6 267.469 921.6 281.6 C 921.6 295.731 910.131 307.2 896 307.2 L 896 307.2 Z" fill="#faeab9"/>
		<path d="M 896 563.2 L 128 563.2 C 113.869 563.2 102.4 551.731 102.4 537.6 C 102.4 523.469 113.869 512 128 512 L 896 512 C 910.131 512 921.6 523.469 921.6 537.6 C 921.6 551.731 910.131 563.2 896 563.2 L 896 563.2 Z" fill="#dec592"/>
		<path d="M 896 819.2 L 128 819.2 C 113.869 819.2 102.4 807.731 102.4 793.6 C 102.4 779.469 113.869 768 128 768 L 896 768 C 910.131 768 921.6 779.469 921.6 793.6 C 921.6 807.731 910.131 819.2 896 819.2 L 896 819.2 Z" fill="#ba9762"/>
	</g>
</svg>